<?xml version="1.0" encoding="utf-8"?>
<!-- Generator: Adobe Illustrator 19.0.0, SVG Export Plug-In . SVG Version: 6.00 Build 0)  -->
<svg version="1.2" baseProfile="tiny" xmlns="http://www.w3.org/2000/svg" xmlns:xlink="http://www.w3.org/1999/xlink" x="0px"
	 y="0px" viewBox="0 0 1400 980" xml:space="preserve">
<g id="Background" display="none">
	<polyline display="inline" fill-rule="evenodd" fill="#E29B29" points="0,1 1400,1 1400,981 0,981 	"/>
</g>
<g id="Drawing" display="none">
	<g>
		<path display="inline" fill="#21201C" d="M1066.2,908.6c-3.3-1.2-6.7-1.9-10.1-0.9c-3.9,1.2-7.6,0.7-11.3-0.5
			c-0.9-0.3-1.8-0.7-2.8-0.7c-1.7,0-2.6-0.7-2.5-2.2c1.4-0.3,3.6-0.1,4.1-1c1.4-2.1,4-3,5-5.3c1.1-2.4,0.3-4.3-2.2-5.6l-0.8,0.3
			c0.1-0.2,0.3-0.4,0.4-0.6c0.3-0.3,0.6-0.7,0.9-1c2.4-2.6,1.7-7.5-1.4-9.1c-0.5-0.3-1.9,0.1-2,0c-0.4-1.5-1.6-1.1-2.5-1
			c-2.4,0.4-4.8,0.9-7.5,1.4c0-2.7,0-5.5,0-8.3c0-2.5-0.2-5-0.3-7.5c0-2.6,0-5.2,0-7.9c0-1.1,0-2.1-0.1-3.2c-0.1-1.6,0.5-2.7,2-3.5
			c2.1-1.1,3.9-2.3,4.2-5.4c0.3-3.7-2.7-6.9-6.5-6.9c-0.8,0-1.7,0-2.8,0c-0.8-3.9-1.4-7.8-2.4-11.7c-0.4-1.7-1.5-3.3-2.3-4.9
			c-0.1-0.3-0.2-0.8-0.1-1.1c1.3-6.1,2.8-12.2,4-18.3c0.5-2.7,0.6-5.5,1-8.3c0.6-4.8,1.3-9.6,1.9-14.4c0.2-1.9,0.5-3.7,0.6-5.6
			c0.3-2.8,0.6-5.6,0.8-8.2c1.5-0.2,2.9-0.1,3.9-0.6c1.3-0.6,2-2,1.6-3.5c-0.4-1.7-1.6-2.5-3.2-2.8c-1.6-0.3-2.4-0.6-1.6-2.5
			c0.4-1,0-2.2,0.1-3.3c0.1-1.1,0.2-2.2,0.3-3.2c3.4-0.1,6.5-0.6,9.2-2.5c7.7-5.3,9.7-15.8,6.5-24c-0.4-1.1-0.9-2.4-1.7-3
			c-1.8-1.3-1.1-2.1,0.1-3c0,0,0-0.3-0.1-0.8c-2.3,2.1-4,0.6-6.1-0.5c-2.5-1.3-5.1-0.1-7.6,1c-0.5-0.8-1.1-1.7-1.7-2.7
			c-2.2-0.2-2.2-0.2-2.9,2.2c-2.2-1.1-4.4-2-6.5-3.2c-1.4-0.8-2.6-1.4-4.3-1.3c-0.6,0.1-1.3-0.3-1.9-0.7c-1.5-0.9-2.4-0.6-2.9,1.5
			c-0.5-0.9-1-1.5-1.2-2.2c-0.8-2.9-3.3-4.1-5.3-5.8c-0.3,0-0.6-0.1-0.8-0.2c0,0-0.1,0-0.1,0c-0.1,0-0.1,0-0.2,0
			c-0.2,0-0.3,0-0.5-0.1c-0.1,0-0.2,0-0.4,0c0,0,0,0,0,0c-8.6,0.5-14,6.9-15.4,14.4c-1,5.1-0.7,9.8,2.2,14.2c1.4,2,3,3.6,5.4,4.5
			c1.1,0.4,2,1.6,2.7,2.7c2.1,3.1,5.4,4.6,8.4,6.5c1.5,0.9,3,1.9,4.7,2.9v1.7c-2.6-0.6-5.1,0.5-5.9,2.5c-0.8,2.1,0.7,5.3,3.3,6
			c1.3,0.4,1.6,1,1.4,2.1c-1.2,6.7-2.4,13.4-6,19.3c-0.9,1.5-2,2.9-3.3,4.8c-0.9-2-1.5-3.5-2.3-5.1c0.8-0.1,1.4-0.1,2.3-0.2
			c-0.6-0.3-1.2-0.4-1.2-0.6c-0.3-2.2-2.4-3.2-3.3-4.8c-2-3.3-4.6-6.5-4.5-10.8c0.3-10.4-2-20.4-6.4-29.9c-2.3-4.9-4.9-9.6-7.6-14.3
			c-1.1-1.8-2.9-3.3-4.4-4.8c-0.3-0.3-1,0-1.4-0.2c-0.6-0.2-1.5-0.4-1.8-0.9c-0.9-1.7-2.6-1.1-3.9-1.5c0,0.3,0,0.7-0.1,1
			c1.1,0.3,2.3,0.5,3.4,0.8l-0.2,0.7c-1-1.4-2.8,1.6-3.6-1.2c-0.8-1.3-2.3-2.3-1.2-4.1c-1.8-0.6-3.6-1.1-5.4-1.7
			c1.5,2,2.8,3.7,4.2,5.4c0.2,0.3,0.9,0.2,1.1,0.5c0.3,0.4,0.5,1,0.5,1.5c0,0.2-0.8,0.4-1.6,0.8c2.8,0.1,2.4,1.5,1.7,2.8
			c-0.7,1.4-2.1,1-3.4,0.7c-0.4-0.1-0.8,0-1.2,0.1c-0.6-2-1.4-4.3-2.1-6.5c-0.4-1.4-0.6-2.9-1-4.4c-0.1-0.3-0.3-0.7-0.5-0.8
			c-4.4-1.6-7.7-5.9-13-5.3c-0.7,0.1-1.7-0.3-2-1c-2.2-3.9-5.5-6.7-9.1-9.3c-1.2-0.8-2-2.7-2.4-4.2c-0.8-2.8-1.1-5.8-2-8.6
			c-0.4-1.3-1.5-3.2-2.4-4.2c-3.9-4.5-5.5-9.8-6-15.6c-0.5-5.3-0.5-10.6-2.7-15.6c-0.1-0.4-0.2-0.8-0.1-1.2
			c1.2-3.8,0.7-7.6,0.1-11.5c-0.4-2.1,0.5-4.5,1.1-6.6c0.5-2,1.6-3.8,2.2-5.7c0.4-1.2,0.4-2.5,0.3-3.7c-0.2-1.6-0.7-3.2-0.9-4.8
			c-0.1-0.5,0.5-1.1,0.8-1.8c-1.7-1.9-1.1-4.1-0.5-6.5c0.3-1.4-0.2-3.1-0.5-4.5c-0.5-2.5-1.1-5.1-1.9-7.5c-0.6-1.9-1.3-3.9-2.4-5.5
			c-0.9-1.4-2.6-2.2-3.6-2.9c-0.2-3.4,0.4-6.7-0.6-9.3c-1-2.6-3.4-4.9-5.6-6.9c-2.4-2.2-3.9-6.1-3.4-9.5c0.8-4.7,1-9.4-2.9-13.1
			c-1.2-1.1-2.7-1.9-4.1-2.7c-0.8-0.4-1.7-0.6-2.5-0.9c-2.8-0.9-2.7-0.9-2.2-3.9c0.2-1.2,1.3-3.1-0.9-3c-0.5-1-0.8-2.2-1.4-2.3
			c-4.5-1.1-6.9-3.8-7.3-8.4c-0.1,0.9-0.1,1.8-0.2,2.6c-6.2-1.8-11.6,1.5-13.1,8c-0.2,1.1-0.4,2.2-0.4,3.3c-0.1,2.7-0.9,3.7-3.5,4.6
			c-0.9,0.3-1.6,1.4-2.4,2.1c-1.1,1-2.3,2-3.4,3c-0.4,0.4-0.9,0.9-1.1,1.4c-0.7,2.1-1.3,4.2-1.8,6.4c-0.2,0.7,0.1,1.4,0,2.1
			c-0.1,1.2-0.3,2.3-0.5,3.5c-0.3,1.9-0.5,3.9-0.9,5.8c-0.2,0.8-0.9,1.5-1.6,2c-0.9,0.7-2,1.1-3.5,1.9c0,0,0,0,0,0
			c-0.1,0.2-0.2,0.3-0.4,0.4c0,0.3-0.1,0.6-0.2,0.9c0.1,0.4,0.1,0.8-0.1,1.2c0.5,1.1,0.5,2.4-0.8,3.7c-0.1,0.1-0.2,0.4-0.2,0.6
			c1.9,4.5-0.3,8-2.9,11.4c-1.6,2-3.4,3.9-5,5.9c-0.6,0.7-1.5,1.6-1.4,2.2c0.4,2.8-1.4,4.8-2,7.2c-0.4,1.5-0.7,3-0.5,4.5
			c0.3,2.6-0.7,4.6-2,6.6c-0.9,1.4-1.5,3-2.1,4.6c-0.7,1.8-1.1,3.6-1.9,5.4c-1.3,3.3-1.2,6.7-0.3,9.8c0.9,2.9-0.3,5.4-0.4,8
			c-0.2,5-3.1,8.8-5.5,12.8c-0.9,1.5-1.3,3.1-2.1,4.6c-1.9,3.5-3.7,7-5.8,10.4c-2.8,4.4-4.1,9.4-5.9,14.2c-0.5,1.4-0.7,3.2-1.7,4
			c-1,0.9-2.8,0.9-4.3,1.1c-5.3,0.8-10.6,1.3-15.8,2.3c-5.7,1-9.5,4.4-12.3,9.5c-4.6,8.3-8,17.1-9.9,26.4c-0.5,2.3-0.4,4.7-0.5,7.1
			c-0.4,6.8-1.4,13.6-1.1,20.3c0.3,5.6-2.8,9.2-4.7,13.1c-0.5,0.4-0.5,0.3-0.7,0.5c-0.4,0.3,0,0-0.8,0.6c-0.3,0.8-0.8,0.5-1.9,0.8
			c-1.6,0.4-1.3,0.5-2.4,1.8c-1.6,2.2-3.4,4.2-5,6.4c-0.6,0.8-1,1.7-1.3,2.7c-1.6,4.7-3.5,5.7-7.9,3.7c-1.6-0.7-3.7,0.2-5-1.6
			c-0.7-0.9-1.7-1.6-2.5-2.4c-5.2-5.4-10.3-10.9-15.4-16.3c-0.4-0.5-0.6-1.4-0.6-2.1c0.1-7,0.2-14,0.4-20.9c0.2-6,0.6-12,0.8-18.1
			c0-1.5,0.8-2,2-2.2c1.7-0.2,2.5-1.1,2.8-2.7c0.1-0.7,1-1.3,1.4-2c1.1-2,2.1-4.1,3.1-6.2c0.1-0.3,0.2-0.8,0-1.1
			c-1-2.9,0.3-5.7,0.3-8.5c0-1.6,0.5-4-2.1-4.7c-0.3-0.1-0.7-0.4-0.8-0.7c-0.9-2.5-3.3-2.7-5.3-3.7v-8.2c1.3,0.1,2.6,0.6,3.8,0.3
			c0.9-0.2,2.2-1.3,2.3-2.1c0.1-0.9-0.7-2.4-1.5-2.8c-3.4-1.8-4.8-4.4-4.2-8.4c0.1-0.8,0.1-1.6-0.1-2.3c-0.3-1.9,0.2-3.3,1.6-4.4
			c1.4-1.1,1.4-2.6,0.4-3.9c-2.2-3-2.1-4.3,0.2-7.3c0.7-0.9,0.9-2.2,1.4-3.3c3.4,1.7,7,2.2,10.7-0.2c2.6-1.7,3.1-4.5,4-7.2
			c1.4-4.5-0.2-8.7-1.9-12.8c-1.6-3.9-3.7-7.5-5.2-11.4c-1.8-4.5-2.9-9.3-3.1-14.2c-0.3-7.6-1-15.2-1.6-22.9c-2,0.8-2.6,2.9-3,4.7
			c-0.7,3.5-0.9,7-1.4,10.5c-0.2,1.9-0.4,3.9-0.6,5.8c-1-8.7-2-17.4-3-26l-0.8,0c-2.7,8.4-3.4,17.3-4.6,26c-0.2,0-0.3,0-0.5-0.1
			c0.2-2.1,0.6-4.2,0.5-6.3c0-5.1-0.2-10.3-1.7-15.3c-0.3-1-1.4-1.8-2.2-2.9c-0.3,0.5-0.7,0.8-0.6,1c0.5,7.6-1,15-2,22.4
			c-0.9,6.8-4,12.4-7.5,18c-2.9,4.7-5.6,9.8-4.9,15.7c0.5,4.8,1.9,9.2,6,12.1c3.3,2.4,6.9,2.3,10.9,0.9c-1.5,3.5-3.1,6.9,1,9.6
			c-0.6,0.9-1,1.7-1.6,2.3c-1.4,1.3-1.6,2.6-0.3,4.2c1.9,2.3,1.3,5,1.2,7.6c0,0.9-0.3,1.8-0.5,2.8c-2.3-0.9-3.7,0.5-4.4,2.4
			c-1.7,4.5-3.1,9.1-4.8,13.7c-0.5,1.3-1.3,2.5-2.2,3.7c-3.3,4.8-6.7,9.5-10.1,14.2v53.5c0.3,1.7,0.6,3.3,0.8,5c1,6.3,2,12.6,3,19
			c0.9,5.9,2.2,11.6,5.2,16.8c1.6,2.9,3.2,5.8,5.5,8.2c2.8,2.9,2.1,6.1,1.9,9.4c0,0.4-0.2,0.8-0.2,1.2c-0.2,6.2-0.2,12.4-0.4,18.6
			c-0.2,6.9-0.5,13.9-0.8,20.8c-0.3,6.2-0.5,12.5-0.9,18.7c-0.1,1.1-0.1,2.3-0.4,3.4v1.8c0,0.4-0.1,0.8-0.4,1.1
			c0,1.8-0.1,3.5-0.3,5.3c0,0.3-0.2,0.5-0.4,0.7c0,0.4,0,0.8-0.2,1.2c0,0,0,0,0,0c0,1.3-0.1,2.5-0.5,3.6c-0.1,0.2-0.1,0.3-0.2,0.4
			c0,0,0,0.1,0,0.1c0.2,0.3,0.3,0.7,0.3,1.1c0,1.7-0.2,3.4-0.5,5.1c-0.2,0.9-1.2,1.5-2,1.4c0,0.1-0.1,0.1-0.1,0.2
			c-0.3,0.7-1.1,1-1.8,0.9c0,0-0.1,0-0.1,0c-0.2,0.1-0.5,0.2-0.8,0.2c-0.5,0-1-0.2-1.3-0.5c-0.1,0-0.1,0-0.2,0c-1,0-1.6-0.7-1.8-1.4
			c0-0.1-0.1-0.1-0.1-0.2c-0.1-0.1-0.1-0.2-0.2-0.3c-0.1-0.1-0.3-0.2-0.4-0.3c-0.2-0.2-0.3-0.4-0.5-0.7c-0.3-0.3-0.6-0.6-0.8-1
			c-0.2-0.2-0.5,2.7-0.5,2.4c0-0.1-0.7,1-0.8-1.3l0.9,75.7h385.7v-65.8C1073.7,911.1,1069.9,910,1066.2,908.6z M1007.9,712.6
			c-1.2-0.9-2.4-1.8-3.8-3c0.8-0.2,1.5-0.3,2.8-0.6c1.2,1.1,3.4,3.2,5.5,5.2c-0.2,0.2-0.4,0.5-0.6,0.7
			C1010.5,714.2,1009.2,713.5,1007.9,712.6z M1012.8,715.6c-0.1-0.1-0.3-0.2-0.4-0.3c0.1-0.1,0.2-0.2,0.2-0.2
			c0.2,0.1,0.3,0.2,0.5,0.3C1013,715.5,1012.9,715.7,1012.8,715.6z M725.3,624.9c2.7,2,3.9,5.5,3.1,8.7
			C724.5,633,723,628.6,725.3,624.9z M712.1,630.9c-1.6,1.2-3.2,0.5-4.2-0.6c-0.1-0.2-0.3-0.4-0.4-0.5c-1.5-2.9,0.9-4.6,2.4-6.6
			c0.5-0.7,1.1-1.3,1.7-1.9c-0.9,1.9,0.1,3.3,1,4.8C713.9,628.1,713.5,629.9,712.1,630.9z M694.9,913.2c0.6,0.1,1.3,0.1,1.9,0.2h0
			c-0.3,0.1-0.3,0.3-0.2,0.6c-0.2-0.1-0.4-0.2-0.6-0.2c-0.4-0.1-0.8,0-1.2,0C694.8,913.6,694.8,913.4,694.9,913.2z M697.7,916.8
			c-1.1,0.7-2,1.8-3.7,0.4c1-0.7,1.9-1.3,2.8-1.9c0.1-0.1,0.2-0.2,0.2-0.4C697.6,915.7,698.3,916.5,697.7,916.8z M709.8,749.2
			c-0.7-2.4-1.4-4.5-2-6.6c0.8-0.2,1.6-0.4,2.6-0.6C710.2,744.4,710,746.7,709.8,749.2z M710.4,736.3c-1.8-0.1-3.4-0.3-5-0.4
			c-0.5-4.3,1-6.7,5.5-8.2C710.7,730.7,710.6,733.6,710.4,736.3z M771.5,890.5c-7.2,1.1-14.4,1.8-21.4,3.3
			c-6.7,1.4-13,4.2-17.1,10.2c-0.4,0.6-0.9,0.9-1.4,1.1c-0.2,0.6-0.5,1.1-0.9,1.6c0,0,0,0,0,0c0.1,0,0.2-0.1,0.3-0.1
			c-1.7,4.2-3.3,8.2-4.8,12.2c-0.3,0.8-0.6,1.6-1,2.5c-0.2-0.6-0.3-1-0.4-1.3c-0.1,0.2-0.2,0.4-0.2,0.5c-0.1,0.6-0.4,1.2-0.9,1.5
			c0,0,0,0.1-0.1,0.1l0,0c-0.2,0.1-0.5,0.2-0.8,0.2c-0.8,0-1.3-0.4-1.6-0.9c-0.2,0-0.4,0.1-0.6,0.1c-0.5,0-0.9-0.2-1.2-0.4
			c-0.4-0.1-0.7-0.3-1-0.6c-0.2-0.1-0.3-0.3-0.4-0.5c-0.4-0.2-0.7-0.6-0.8-1c-0.5-0.1-0.9-0.4-1.1-0.9c0,0-0.2-0.2-0.2-0.2
			c0,0,0,0,0,0c-0.2-0.2-0.4-0.5-0.5-0.8c-0.4-0.4-0.6-0.9-0.6-1.4v-0.2c0-0.3,0.1-0.5,0.2-0.7c-0.1-0.1-0.2-0.1-0.3-0.2
			c-0.4-0.4-0.8-1-0.8-1.5c0-0.1,0-0.1,0-0.2c-0.1-0.2-0.1-0.4-0.1-0.5c-0.2-0.3-0.2-0.7-0.2-1c0,0,0-0.1-0.1-0.1
			c-0.2-0.3-0.2-0.6-0.3-0.9c0-0.1,0-0.2,0-0.3v-0.1c0,0,0,0,0,0c0,0.1,0,0.1,0,0.2c-0.2,0-0.3-0.1-0.5-0.1c0-0.3,0.1-0.6,0.1-0.9
			c0-0.1-0.1-0.2-0.1-0.4c-0.4-0.5-0.5-1.1-0.5-1.8c0.3-2.5,0.3-5,0.6-7.5c0-0.1,0.1-0.3,0.1-0.4c0-0.7,0-1.4,0.1-2.1
			c0-0.3,0.1-0.6,0.3-0.8c0-0.6,0-1.1,0-1.7c0-0.4,0.1-0.7,0.3-1c0-0.8,0-1.7,0.1-2.5c0-0.2,0.1-0.5,0.2-0.7c0-0.5,0-1,0-1.4
			c0-0.4,0.1-0.7,0.3-1c0-1.7,0-3.5,0-5.2c-0.2-0.3-0.2-0.6-0.2-0.9c0,0,0.1,0,0.1,0c0-0.2,0-0.3,0-0.5c0-0.3,0.1-0.6,0.3-0.9
			c-0.6-5.1,0.1-10.1,0.4-15.2c0-0.3,0-0.6,0-0.8c0.1-5.1,0.3-10.3,0.4-15.4c0.1-4.7,0.2-9.4,0.4-14.1c0.1-3.6,0.4-7.1,0.6-10.8
			c2.3,2.1,4.5,4.3,6.9,6.3c2.7,2.2,5.6,4.2,8.4,6.4c2.8,2.2,4.6,5.2,6.1,8.4c1.6,3.1,3.7,5.9,7.3,6.5c2.3,0.4,4.8-0.1,7.1-0.6
			c4.7-0.9,9-2.8,12.6-6.2c0.8,4.5,1.5,9,2.4,13.3c0.9,4,2.1,7.9,3,11.9c0.9,4,1.9,8,2.3,12.1C772.5,884.7,771.8,887.7,771.5,890.5z
			 M813.5,811.9c0.9,1.9-0.8,2.9-5.1,2.7C810.3,813.6,811.9,812.7,813.5,811.9z M825.9,857.1c-0.8,3.9-1.4,7.9-2.6,11.6
			c-1.2,3.5-3.1,5.3-7.2,2.3c-2.2-1.6-5.1-2.8-7.9-3.1c-4.4-0.5-6.8,2.2-6.9,6.6c0,0.4,0,0.7,0,1.1c-1,0.3-2.1,0.5-3,1
			c-2.1,1.2-2.5,2.9-2.1,5.4c0.3,1.8,0.3,3.6,0.4,5.6c-2.5,0.5-5,1.1-7.6,1.7c-0.3-5,0.2-9.8,1.8-14.6c1.9-5.9,3.8-11.8,5.3-17.8
			c1-4.2,1.2-8.6,1.8-12.9c0.7-4.4-0.4-8.6-1.1-12.9c-0.3-1.6,0.1-3.3,0.1-4.9c0-0.9-0.2-1.8-0.3-2.9c0,0,0,0,0,0
			c2.6-3.2,5.6-1.6,8.8-1c5.6,1,10.7-0.6,14.5-4.5c3.7,9.5,7.4,19,11.3,28.8C826.5,848.5,826.7,853,825.9,857.1z M932.9,906.3
			c-1.7,0.8-3.3,2.1-5,2.4c-2.3,0.4-4.3,1.1-6,2.7c-0.1,0.1-0.4,0.2-0.6,0.1c-4.6-1-9.4,0.3-14.2-0.9c0.3-0.2,0.4-0.3,0.6-0.4
			c2.2-0.4,4.5-0.8,6.7-1.3c1-0.2,2-1,3-1.2c2-0.3,4.1-0.3,6.2-0.5c1.2-0.1,2.9,0.5,3.2-1.6c0,0,0.3-0.1,0.4-0.1
			c1.8,0.1,3.6,0.3,5.4,0.4c0.3-0.1,0.5-0.2,0.8-0.3C933.1,905.9,933,906.1,932.9,906.3z M943.9,876c0,0-0.1,0-0.1,0
			c-0.3-3.6-0.6-7.2-1-10.7c-0.1-1.1-0.1-2.3-0.5-3.3c-0.8-2.2,0.3-3.6,1.7-5.1c0.5-0.5,0.7-1.1,1.4-2.2
			C944.8,862.2,944.3,869.1,943.9,876z M999.6,886.8c-2.6,0.7-5.6,1.4-8.5,2.2c-2.2-3.3-3-3.6-6.4-2.1c-0.2-1.1-0.5-2-0.1-3
			c1.2-3.4,1.2-7,0.2-10.4c-0.8-2.6-0.2-3.3,1-4.5c1.7-1.7,3.1-3.8,4.6-5.8c0.3-0.4,0.6-0.9,1.1-1.5c1.5,2.5,3,4.8,4.3,7.2
			c0.7,1.3,0.9,2.9,1.7,4.1c1.1,1.8,2.5,3.3,3.8,4.9c-1,1.3-2.7,2.6-2.9,4.1C998,883.4,999.1,885.2,999.6,886.8z M1009.4,815.1
			c3.2,0.5,6.5,1.1,9.7,1.6c0,0.2-0.1,0.4-0.1,0.6c-3.2-0.6-6.5-1.2-9.7-1.8L1009.4,815.1z M1018.2,823.2c-0.5,0-1,0-1.9,0
			c0,0-0.4-0.5-0.8-1c-1.1,1.1-2.2,2.1-3.1,0c-0.1-0.2-1-0.3-1.1-0.2c-1,1.2-1.7,0-2.6-0.2c0.9-2.4,3.7-3,6.5-1.7
			c0.8,0.4,1.6,0.7,2.6,1.1c0.4-0.6,0.4-0.6,3.1,2.4C1019.8,823.4,1019,823.3,1018.2,823.2z M1021.9,824.4c-0.2,0-0.3-0.1-0.5-0.2
			c0.1-0.2,0.1-0.3,0.2-0.4c0.2,0.1,0.4,0.2,0.5,0.3C1022,824.2,1021.9,824.4,1021.9,824.4z"/>
		<path display="inline" fill="#21201C" d="M697.4,912C697.4,912,697.4,912,697.4,912C697.4,912,697.4,912,697.4,912z"/>
		<g display="inline">
			<path fill="#21201C" d="M960.1,713c0.7,0,2-0.1,2.6,0.1c-0.3-0.6-0.7-1.2-1-1.8c-0.3,1-1.1,1.6-1,2.8c0.1,0.7,0.4,1.3,1.1,1.4
				c3.8,1.1,4.3-5.7,0.9-4.7c-2.8,0.8-1.4,7.3,2.4,4.4c-0.7-0.6-1.5-1.1-2.2-1.7c-0.4,2.1-1.2,4.7-0.6,6.9c0.3,1.1,1.7,1.5,2.5,0.7
				c1.4-1.5,0.9-3.8,0.3-5.6c-0.5-1.5-3-1.4-2.9,0.4c0,1.6,0.3,3.3,0.4,4.9c0.9-0.3,1.9-0.5,2.8-0.8c-0.7-1.5-1.4-2.9-1.7-4.5
				c-0.9,0.4-1.8,0.8-2.7,1.2c1.1,1.8,1.6,5.1,3.2,6.5c0.6,0.5,1.5,0.6,2.1,0c0.5-0.5,0.7-2,1.2-2.3c-0.6-0.1-1.2-0.2-1.8-0.2
				c0.4,0.4,0.8,1.8,1,2.3c0.7,1.5,2.7,0.6,2.8-0.8c0.1-1.2,0.3-2.5,0-3.7c-0.3-1.2-1.5-2.1-1.7-3.3c-0.3-1.7-2.9-1.3-2.9,0.4
				c0,1.1-0.1,2.2-0.3,3.3c1,0,1.9,0,2.9,0c-0.2-0.9-0.5-2.6,0-3.4c-0.4,0.2-0.9,0.5-1.3,0.7c0.1,0,0.1,0,0.2,0
				c-0.5-0.4-1-0.7-1.4-1.1c0,0.1,0,0.1,0.1,0.2c0.3,1,1.7,1.6,2.5,0.7c0.3-0.4,1.1-1.3,1-1.8c-1.9-0.4-2.4-0.2-1.4,0.7
				c0.3,0.4,0.7,0.8,1,1.2c1,1.2,2.1,2.8,3.8,2.9c2.6,0.2,2.4-2.8,0.3-3.6c-1.8-0.7-2.6,2.2-0.8,2.9c0.2,0.1,0.3,0.1,0.5,0.2
				c-0.3-0.3-0.7-0.7-1-1c0-0.2,0.1-0.5,0.1-0.7c0.4-0.2,0.9-0.5,1.3-0.7c-0.8,0-2.3-2.4-2.8-3c-0.5-0.6-0.9-1.3-1.7-1.5
				c-1.8-0.3-1.6,1.3-2.4,2.2c0.8,0.2,1.7,0.4,2.5,0.7c0-0.1,0-0.1-0.1-0.2c-0.2-0.7-0.8-1-1.4-1.1c-0.1,0-0.1,0-0.2,0
				c-0.5-0.1-1.1,0.3-1.3,0.7c-1,1.7-0.7,3.9-0.3,5.7c0.3,1.4,2.7,1.5,2.9,0c0.2-1.4,0.4-2.7,0.4-4.1c-1,0.1-2,0.3-2.9,0.4
				c0.2,0.9,0.5,1.3,1,2.1c0.9,1.6,0.8,2.4,0.6,4.1c0.9-0.3,1.9-0.5,2.8-0.8c-0.4-0.9-0.7-2.2-1.5-2.9c-0.5-0.4-1.2-0.6-1.8-0.2
				c-1.1,0.7-1,1.9-1.8,2.7c0.7,0,1.4,0,2.1,0c-0.8-0.7-1.1-2.4-1.5-3.4c-0.4-0.9-0.8-1.7-1.3-2.5c-0.9-1.5-3-0.5-2.7,1.2
				c0.3,1.8,1.2,3.6,2,5.3c0.6,1.3,2.9,0.7,2.8-0.8c-0.2-1.6-0.4-3.3-0.4-4.9c-1,0.1-2,0.3-2.9,0.4c0.1,0.4,0.8,2.3,0.5,2.6
				c0.8,0.2,1.7,0.4,2.5,0.7c-0.4-1.6,0.3-3.7,0.6-5.3c0.2-1.1-1.1-2.6-2.2-1.7c-0.9,0.5-1,0.7-0.4,0.5c0.4,0.2,0.9,0.5,1.3,0.7
				c0-0.4,0-0.8,0-1.2c-0.3,0.3-0.7,0.7-1,1c-0.3-0.4-0.5-0.8-0.8-1.1c0.4,0.5,0.7,1,1.1,1.4c-0.1-0.7,0.7-1.3,0.9-2
				c0.2-0.8-0.3-1.6-1-1.8c-1-0.3-2.4-0.2-3.4-0.2C958.2,709.9,958.2,712.9,960.1,713L960.1,713z"/>
		</g>
		<g display="inline">
			<path fill="#21201C" d="M976.4,718.2C976.4,718.1,976.4,718.1,976.4,718.2c0.2-0.6,0-1.2-0.4-1.6c-2.8-2.9-7.1-5.3-11.1-5.4
				c-1.9,0-1.9,3,0,3c3.2,0.1,6.8,2.3,9,4.5c-0.1-0.5-0.3-1-0.4-1.5c0,0,0,0.1,0,0.1C972.8,719.2,975.7,720,976.4,718.2L976.4,718.2
				z"/>
		</g>
		<g display="inline">
			<path fill="#21201C" d="M1005.9,711.3c0.2,0.1,0.4,0.2,0.7,0.3c0.4-0.9,0.8-1.8,1.2-2.7c-0.8-0.2-1.5-0.3-2.3-0.3
				c-1.5,0-2,2-0.8,2.8c2.5,1.5,6,2.8,7.4,5.5c0.9,1.7,3.5,0.2,2.6-1.5c-1.7-3.2-5.5-4.8-8.5-6.6c-0.3,0.9-0.5,1.9-0.8,2.8
				c0.5,0,1,0,1.5,0.2c1.6,0.3,2.7-1.9,1.2-2.7c-0.2-0.1-0.4-0.2-0.7-0.3C1005.7,707.8,1004.2,710.4,1005.9,711.3L1005.9,711.3z"/>
		</g>
		<g display="inline">
			<path fill="#21201C" d="M1014.5,819.3c-1.9,0.1-2.9,0.8-3.4,2.7c1,0,1.9,0,2.9,0c-0.8-3.3-2.3-5.9-4.9-8.2
				c-1.3-1.1-3.2,0.3-2.4,1.8c1.5,3,3.5,5.2,6.2,7.2c0.7,0.5,1.7,0.1,2.1-0.5c1.7-2.8,1.7-5.7,0.2-8.6c-0.5-1-2-0.9-2.6,0
				c-1.7,2.9-2.1,5.8-0.8,9c0.4,0.9,1.3,1.4,2.2,0.9c2.2-1.1,3-2.6,3.1-5c-1,0.1-2,0.3-2.9,0.4c1.5,4.1,3.8,7.1,7.3,9.6
				c1.1,0.8,2.5-0.5,2.2-1.7c-0.9-3.8-2.6-7-5.3-9.9c-1.2-1.3-3.2,0.4-2.4,1.8c1,1.9,2,3.7,3.1,5.6c0.8,1.5,3.1,0.5,2.7-1.2
				c-0.4-1.9-0.8-3.8-1.3-5.7c-0.9,0.4-1.8,0.8-2.7,1.2c0.7,1.1,1.3,2.3,2,3.4c0.7,1.2,2.9,0.8,2.8-0.8c-0.1-1.7-0.2-3.3-0.2-5
				c-0.9,0.3-1.9,0.5-2.8,0.8c1,1.5,1.8,2.9,2.6,4.5c0.9-0.5,1.7-1,2.6-1.5c-1.9-3.9-4.4-7.1-7.7-9.8c-0.9-0.8-2.6-0.3-2.6,1.1
				c0.1,3.1,0.7,5.7,2,8.5c0.8,1.7,3,0.4,2.7-1.2c-0.3-1.9-0.8-3.3-1.6-5c-0.5-1.1-2.6-0.9-2.7,0.4c-0.2,1.3-0.4,2.7-0.6,4
				c0.9-0.1,1.8-0.2,2.7-0.4c-0.8-1.7-1.6-3.5-2.4-5.2c-0.6-1.2-2.4-0.8-2.7,0.4c-0.4,1.5-0.9,3.1-1.3,4.6c1,0.1,2,0.3,2.9,0.4
				c-0.1-1.3-0.3-2.6-0.4-3.9c-1,0-2,0-3,0c0.3,2.8,0.3,5.3-0.1,8c1,0,1.9,0,2.9,0c-0.5-2.1-1-4.2-1.5-6.3c-0.4-1.7-2.9-1.3-2.9,0.4
				c-0.1,2-0.3,4-0.9,6c1,0.1,2,0.3,2.9,0.4c0.3-0.7,0.7-1.5,1-2.2c-0.8-0.2-1.7-0.4-2.5-0.7c0.4,2.9-8.8,2.8-11.1,3.1
				c-4,0.7-8,1.7-11.9,3c-5.1,1.8-10.4,4.2-14,8.5c-1.5,1.9-2.1,3.9-3.1,6c-1.9,4-5.8,4.5-9,6.8c-5,3.6-8.5,8.9-11.7,14.1
				c0.9,0.4,1.8,0.8,2.7,1.2c0.9-4.9-0.2-9.1-3.3-13c-0.8-0.9-2.2-0.3-2.5,0.7c-3,9-6.6,17.7-10.9,26.1c0.9,0.4,1.8,0.8,2.7,1.2
				c1.8-6.5,3.1-13,3.9-19.7c-1,0-2,0-3,0c-0.4,5.5-1.4,10.7-3.2,15.9c-0.6,1.9,2.2,2.5,2.9,0.8c1.8-4.5,3.3-9.1,4.5-13.8
				c-1-0.1-2-0.3-2.9-0.4c-0.1,4.9-0.1,9.8-0.2,14.7c0,1.7,2.5,2,2.9,0.4c1.4-5.1,2.7-10.2,4.1-15.4c-1-0.1-2-0.3-2.9-0.4
				c0.1,6.4-0.4,12.6-1.5,18.9c1,0.1,2,0.3,2.9,0.4c0.2-5.8,0.5-11.5,0.7-17.3c-1,0-2,0-3,0c0.1,6.2,0.2,12.4,0.3,18.6
				c0,1.7,2.5,2,2.9,0.4c0.9-2.9,1.8-5.8,2.7-8.7c-0.9,0.1-1.8,0.2-2.7,0.4c1.4,2.8-2.3,8.7-3.3,11c-1.5,3.4-3.3,6.8-5.1,10
				c-3.8,6.7-8.2,13-13.1,18.9c-1.2,1.5,0.7,3.4,2.1,2.1c3.3-2.9,6.5-5.8,9.8-8.7c1-0.9,0.2-2.6-1.1-2.6c-9.3,0.2-18.2,2.4-26.5,6.5
				c-1.6,0.8-0.4,3.1,1.2,2.7c7.1-1.6,13.9-3.9,20.6-6.7c1.2-0.5,1.6-2.5,0-2.9c-6-1.4-11.6,0.8-15.1,5.9c-0.6,0.8,0,2,0.9,2.2
				c4.7,1.3,9.1,0.9,13.5-1.3c1.2-0.6,0.8-2.4-0.4-2.7c-5.8-1.5-11.3-0.6-16.3,2.6c-1.1,0.7-0.9,2.3,0.4,2.7
				c4.5,1.6,8.7,1.2,12.9-0.8c1.3-0.6,0.7-2.3-0.4-2.7c-4.3-1.6-8.2-1.3-12.4,0.5c-1.1,0.5-0.9,2.6,0.4,2.7c4.2,0.6,8,0.3,12.1-0.9
				c1.6-0.5,1.3-2.9-0.4-2.9c-5.9-0.1-11.6,0.8-17.2,2.8c-1.5,0.5-1.4,3.2,0.4,2.9c4.7-0.6,8.9-2,12.9-4.6c1.2-0.8,0.8-2.3-0.4-2.7
				c-6.2-2.6-12.9-1.1-17.5,3.8c-0.7,0.7-0.5,2.3,0.7,2.5c7.9,1.2,15.4,0.6,23-1.9c1.2-0.4,1.5-2,0.4-2.7c-4.5-2.9-9.5-3.1-14.2-0.5
				c-1.1,0.6-0.9,2.4,0.4,2.7c4.9,1.3,9.8,1.9,14.9,1.9c2,0,1.9-2.8,0-3c-5.9-0.7-11.7-0.6-17.5,0.1c-1.6,0.2-2.2,2.5-0.4,2.9
				c3.1,0.9,5.8,0.8,9-0.1c1.8-0.5,1.1-3.4-0.8-2.9c-2.6,0.8-4.7,0.8-7.4,0.1c-0.1,1-0.3,2-0.4,2.9c5.9-0.8,11.6-0.8,17.5-0.1
				c0-1,0-2,0-3c-4.8,0-9.4-0.6-14.1-1.8c0.1,0.9,0.2,1.8,0.4,2.7c3.8-2,7.7-1.8,11.2,0.5c0.1-0.9,0.2-1.8,0.4-2.7
				c-7,2.3-14.1,3-21.4,1.9c0.2,0.8,0.4,1.7,0.7,2.5c3.9-4.1,9.4-5.2,14.6-3c-0.1-0.9-0.2-1.8-0.4-2.7c-3.5,2.2-7.2,3.6-11.4,4.1
				c0.1,1,0.3,2,0.4,2.9c5.3-1.9,10.7-2.8,16.4-2.7c-0.1-1-0.3-2-0.4-2.9c-3.5,1-6.9,1.4-10.5,0.9c0.1,0.9,0.2,1.8,0.4,2.7
				c3.4-1.5,6.6-1.4,10.1-0.2c-0.1-0.9-0.2-1.8-0.4-2.7c-3.6,1.7-6.9,1.8-10.6,0.5c0.1,0.9,0.2,1.8,0.4,2.7c4.4-2.8,9-3.6,14-2.3
				c-0.1-0.9-0.2-1.8-0.4-2.7c-3.7,1.8-7.3,2-11.2,1c0.3,0.7,0.6,1.5,0.9,2.2c2.7-3.9,7-5.6,11.7-4.5c0-1,0-1.9,0-2.9
				c-6.7,2.8-13.5,5-20.6,6.7c0.4,0.9,0.8,1.8,1.2,2.7c7.9-4,16.2-6,25-6.1c-0.4-0.9-0.7-1.7-1.1-2.6c-3.3,2.9-6.5,5.8-9.8,8.7
				c0.7,0.7,1.4,1.4,2.1,2.1c6-7.2,11.3-15,15.6-23.3c1.9-3.7,3.7-7.5,5.2-11.4c1.2-3,2.6-5.8,1.1-8.9c-0.6-1.2-2.4-0.8-2.7,0.4
				c-0.9,2.9-1.8,5.8-2.7,8.7c1,0.1,2,0.3,2.9,0.4c-0.1-6.2-0.2-12.4-0.3-18.6c0-1.9-2.9-1.9-3,0c-0.2,5.8-0.5,11.5-0.7,17.3
				c-0.1,1.7,2.6,2.1,2.9,0.4c1.2-6.5,1.8-13.1,1.6-19.7c0-1.7-2.5-2.1-2.9-0.4c-1.4,5.1-2.7,10.2-4.1,15.4c1,0.1,2,0.3,2.9,0.4
				c0.1-4.9,0.1-9.8,0.2-14.7c0-1.7-2.5-2.1-2.9-0.4c-1.2,4.7-2.7,9.3-4.5,13.8c1,0.3,1.9,0.5,2.9,0.8c1.8-5.5,2.9-11,3.3-16.7
				c0.1-2-2.8-1.9-3,0c-0.8,6.4-2.1,12.7-3.8,18.9c-0.5,1.6,2,2.7,2.7,1.2c4.4-8.7,8.1-17.6,11.2-26.8c-0.8,0.2-1.7,0.4-2.5,0.7
				c2.4,3,3.3,6.3,2.6,10.1c-0.3,1.6,1.8,2.6,2.7,1.2c2-3.2,4.1-6.5,6.7-9.3c3-3.3,6.3-4.8,10.2-6.7c1.9-0.9,2.8-1.9,3.6-3.8
				c1.8-4.4,3.1-7.4,7.3-10.2c6.9-4.5,16-6.6,24.1-7.5c4.3-0.5,10.1-0.4,9.2-6.3c-0.2-1.1-1.8-1.4-2.5-0.7c-1.3,1.4-1.7,2.5-1.9,4.4
				c-0.1,1.7,2.5,2,2.9,0.4c0.6-2.3,0.9-4.4,1-6.8c-1,0.1-2,0.3-2.9,0.4c0.5,2.1,1,4.2,1.5,6.3c0.3,1.4,2.6,1.5,2.9,0
				c0.5-3,0.6-5.8,0.3-8.8c-0.2-1.9-3.2-1.9-3,0c0.1,1.3,0.3,2.6,0.4,3.9c0.2,1.6,2.4,2.1,2.9,0.4c0.4-1.5,0.9-3.1,1.3-4.6
				c-0.9,0.1-1.8,0.2-2.7,0.4c0.8,1.7,1.6,3.5,2.4,5.2c0.5,1.1,2.6,0.9,2.7-0.4c0.2-1.3,0.4-2.7,0.6-4c-0.9,0.1-1.8,0.2-2.7,0.4
				c0.8,1.3,1.2,2.8,1.3,4.3c0.9-0.4,1.8-0.8,2.7-1.2c-1.1-2.3-1.6-4.4-1.6-7c-0.9,0.4-1.7,0.7-2.6,1.1c3.2,2.6,5.5,5.6,7.2,9.2
				c0.8,1.7,3.4,0.2,2.6-1.5c-0.8-1.6-1.6-3.1-2.6-4.5c-0.8-1.1-2.9-0.8-2.8,0.8c0.1,1.7,0.2,3.3,0.2,5c0.9-0.3,1.9-0.5,2.8-0.8
				c-0.7-1.1-1.3-2.3-2-3.4c-0.9-1.5-3.1-0.5-2.7,1.2c0.4,1.9,0.8,3.8,1.3,5.7c0.9-0.4,1.8-0.8,2.7-1.2c-1-1.9-2-3.7-3.1-5.6
				c-0.8,0.6-1.6,1.2-2.4,1.8c2.3,2.5,3.7,5.2,4.5,8.6c0.7-0.6,1.5-1.1,2.2-1.7c-2.9-2-4.8-4.5-5.9-7.8c-0.6-1.6-2.9-1.4-2.9,0.4
				c-0.5,0.8-1.1,1.6-1.6,2.5c0.7,0.3,1.5,0.6,2.2,0.9c-0.9-2.3-0.7-4.5,0.5-6.6c-0.9,0-1.7,0-2.6,0c1.1,1.9,1.1,3.7-0.2,5.5
				c0.7-0.2,1.4-0.4,2.1-0.5c-2.3-1.7-3.8-3.6-5.1-6.1c-0.8,0.6-1.6,1.2-2.4,1.8c2.2,1.9,3.4,4,4.1,6.8c0.3,1.4,2.6,1.4,2.9,0
				c0.2-0.2,0.3-0.3,0.5-0.5C1016.4,822.2,1016.4,819.2,1014.5,819.3L1014.5,819.3z"/>
		</g>
		<g display="inline">
			<path fill="#21201C" d="M691.3,737.4c0.3,0-0.3-0.1-0.4-0.1c-0.2,0-0.4,0.1-0.6,0.1c-0.6,0.2-1,0.6-1.2,1.1
				c-0.2,0.7-0.1,1.4,0.4,1.9c0.1,0.1,0.2,0.2,0.3,0.3c-0.1,0-0.1-0.1-0.1-0.1c0,0.2,0.1,0.2,0,0c0.1,0.8,0.6,1.5,1.5,1.5
				c0.8,0,1.6-0.7,1.5-1.5c0-0.5-0.1-1-0.4-1.4c-0.1-0.2-0.2-0.4-0.4-0.6c0-0.1-0.1-0.1-0.1-0.2c-0.1-0.1-0.1-0.1,0,0
				c0.1,0.3,0.1,0.5,0.2,0.8c0,0,0-0.1,0-0.1c-0.1,0.3-0.1,0.5-0.2,0.8c-0.2,0.2-0.4,0.4-0.7,0.4c0.1,0,0.2,0,0.2,0
				c0.3,0,0.5,0,0.8-0.1c0.8-0.1,1.2-1.1,1-1.8C693,737.6,692.2,737.3,691.3,737.4L691.3,737.4z"/>
		</g>
		<g display="inline">
			<path fill="#21201C" d="M691.7,739.3c0.1,0,0.2,0.1,0.3,0.2c0.1,0.1,0.1,0.4,0.1,0.1c0.1-0.8-0.7-1.5-1.5-1.5
				c-0.9,0-1.4,0.7-1.5,1.5c-0.1,1.2,0.7,2.2,1.8,2.6c0.7,0.3,1.7-0.3,1.8-1C693,740.3,692.5,739.6,691.7,739.3L691.7,739.3z"/>
		</g>
		<g display="inline">
			<path fill="#21201C" d="M690.5,709.7c-1.1,4.2-0.6,8.2,1.1,12.2c2.3-2.3,4.6-4.6,6.8-6.8c-0.2-0.1-0.3-0.2-0.5-0.3
				c0.6,0.6,1.2,1.2,1.8,1.8c-0.1-0.2-0.2-0.3-0.3-0.5c-1.7-3.1-7.1-3.5-8.6,0c-1.1,2.4-1.3,4.9,0.2,7.2c2.6,3.9,9.6,2.7,9.3-2.5
				c-0.1-1.3-0.3-2.5-0.6-3.7c-0.1-0.4-0.2-0.8-0.3-1.2c-0.3-1-0.1-0.5-0.1-0.2c0.6-2.6-0.8-5.4-3.5-6.2c-2.5-0.7-5.6,0.8-6.2,3.5
				c-0.4,1.7-0.4,3.3,0,4.9c0.2,0.9,0.7,2.4,0.7,2.8c3.1-0.8,6.2-1.7,9.3-2.5c-0.1,1-0.1,1.9-0.2,2.9c-2.9,0-5.8,0-8.6,0
				c0.6,1.2,1.5,1.9,2.5,2.6c1.8,1.2,4.6,0.7,6.1-0.8c1.7-1.7,1.7-4,0.8-6.1c-0.6-1.4-0.5-3-0.1-4.5
				C701.8,706.1,692.1,703.5,690.5,709.7L690.5,709.7z"/>
		</g>
		<g display="inline">
			<path fill="#21201C" d="M691,728.8c0.1,1.2,0,2.5-0.1,3.7c0.1-0.4,0.1-0.9,0.2-1.3c0,0.1,0,0.2,0,0.3c-0.2,1.4-0.2,2.6,0.5,3.9
				c0.6,1,1.8,2,3,2.3c1.3,0.3,2.7,0.2,3.9-0.5c1-0.7,2.1-1.7,2.3-3c0.3-1.8,0.4-3.5,0.3-5.3c-0.2-2.6-2.2-5.1-5-5
				C693.4,723.9,690.8,726,691,728.8L691,728.8z"/>
		</g>
		<g display="inline">
			<path fill="#21201C" d="M700.9,760c-0.7-4.4-0.8-8.8-0.8-13.2c0-3.7-0.3-8.2,0.7-11.8c0.9-3.3,1.8-5.8,0.4-9.2
				c-0.5-1.2-1.8-2.3-2.2-3.4c-0.2-0.7,0.2-3.5,0.3-4.7c0.4-6.4-9.6-6.4-10,0c-0.2,3.6-0.8,6.8,1.2,10.1c1,1.7,1.3,1.6,1.1,3.5
				c-0.2,1.7-1,3.3-1.1,5.1c-0.8,8.7-0.6,17.7,0.8,26.3C692.2,769,701.9,766.3,700.9,760L700.9,760z"/>
		</g>
		<g display="inline">
			<path fill="#21201C" d="M695.6,712.4c-1.6-0.6-3.6-0.1-4.9,0.9c-1.4,1.1-2.2,2.8-2.2,4.6c0,1.6,0.3,3.4,0.8,5
				c0.8,2.5,3.5,4.3,6.2,3.5c2.5-0.8,4.3-3.5,3.5-6.2c-0.2-0.7-0.4-1.4-0.5-2.1c0.1,0.4,0.1,0.9,0.2,1.3c-0.1-0.5-0.1-1-0.1-1.5
				c-0.1,0.4-0.1,0.9-0.2,1.3c-0.6,0.8-1.2,1.5-1.8,2.3c-0.8,0.2-1.7,0.5-2.5,0.7c0.1,0,0.1,0,0.2,0c-0.4-0.1-0.9-0.1-1.3-0.2
				c0.1,0,0.1,0,0.2,0.1c1.1,0.5,2.9,0.1,3.9-0.5c1-0.6,2-1.8,2.3-3c0.3-1.3,0.2-2.7-0.5-3.9C697.9,713.5,696.9,712.9,695.6,712.4
				L695.6,712.4z"/>
		</g>
		<g display="inline">
			<path fill="#21201C" d="M700.2,708.1c-0.7-0.2-1.5-0.4-2.2-0.5c-1.1-0.2-1.9-0.3-3,0c-0.1,0-0.2,0-0.3,0.1
				c-2.7,0.9-1.5,1.3,3.4,1.1c0.5,1.2,1,2.4,1.5,3.5c-0.7,2-0.8,2.5-0.4,1.6c0.1-0.2,0.2-0.4,0.3-0.6c1.2-2.2,0.7-4.9-1.3-6.5
				c-1.8-1.4-4.9-1.5-6.6,0.4c-1,1.1-1.7,2.5-1.7,4c0,0.5,0.1,1.1,0.2,1.6c0.1,0.3,0.2,0.6,0.4,0.8c0.5,1.2,0.4,0.8-0.3-1.1
				c0.2-0.8,0.5-1.7,0.7-2.5c0.1-0.2,0.3-0.4,0.4-0.6c0.7-0.4,1.5-0.9,2.2-1.3c0.3,0,0.6,0,0.9-0.1c-0.4,0.1-0.9,0.1-1.3,0.2
				c-0.4,0.1-1,0.3-1.3,0.6c-1.2,0.7-2,2-2.4,3.3c-0.4,1.3-0.5,2.8-0.7,4.1c-0.1,1.2,0.7,2.7,1.5,3.5c0.9,0.9,2.3,1.5,3.5,1.5
				c1.3-0.1,2.6-0.5,3.5-1.5c1-1,1.3-2.1,1.5-3.5c-0.2,1.4,0-0.1,0.1-0.4c0.1-0.4,0.5-1.8-0.2-0.3c-0.6,0.6-1.2,1.2-1.8,1.8
				c0,0,0.1,0,0.1-0.1c-0.8,0.2-1.7,0.5-2.5,0.7c2.2-0.2,4-1.1,5.1-3c0.7-1.3,0.9-2.8,0.5-4.1c-0.1-0.5-0.3-1-0.6-1.4
				c0.3,0.8,0.4,0.9,0.3,0.4c0,0.9,0,1.8,0,2.7c0-0.1,0-0.2,0-0.3c-0.4,0.7-0.9,1.5-1.3,2.2c0.1-0.1,0.1-0.1,0.2-0.2
				c-2.6-2-5.2-4-7.9-6.1c-0.6,1.1-1.3,2.5-1.3,3.8c0.1,2,1.1,3.7,2.8,4.7c1.5,0.8,3.2,1.1,4.8,0.6c2-0.7,1.6-0.8-1.5-0.1
				c0.1,0,0.3,0,0.4,0.1c0.5,0.1,1,0.2,1.5,0.4c2.5,0.8,5.6-0.9,6.2-3.5C704.3,711.5,702.8,708.9,700.2,708.1L700.2,708.1z"/>
		</g>
		<line display="inline" fill="none" stroke="#21201C" stroke-miterlimit="10" x1="691" y1="759.5" x2="688.4" y2="742.8"/>
		<line display="inline" fill="none" stroke="#21201C" stroke-miterlimit="10" x1="688.5" y1="743" x2="688.5" y2="740"/>
		<line display="inline" fill="none" stroke="#21201C" stroke-miterlimit="10" x1="688.5" y1="740" x2="688.5" y2="736"/>
		<line display="inline" fill="none" stroke="#21201C" stroke-miterlimit="10" x1="688.5" y1="736" x2="690.6" y2="728.8"/>
		<line display="inline" fill="none" stroke="#21201C" stroke-miterlimit="10" x1="690.6" y1="728.8" x2="691.1" y2="727.8"/>
		<g display="inline">
			<path fill="#21201C" d="M699.1,756.3C699.1,756.3,699.1,756.3,699.1,756.3c-0.9-0.9-2.3-1.5-3.6-1.5c-1.2,0-2.7,0.5-3.5,1.5
				c-0.9,1-1.5,2.2-1.5,3.5c0.1,1.3,0.5,2.6,1.5,3.5c0,0,0,0,0,0c0.9,0.9,2.3,1.5,3.5,1.5c1.2,0,2.7-0.5,3.5-1.5
				c0.9-1,1.5-2.2,1.5-3.5C700.5,758.5,700.1,757.3,699.1,756.3L699.1,756.3z"/>
		</g>
		<g display="inline">
			<path fill="#21201C" d="M695.4,764.5c6.4,0,6.4-10,0-10C689,754.5,689,764.5,695.4,764.5L695.4,764.5z"/>
		</g>
		<g display="inline">
			<path fill="#21201C" d="M699,755.9C699,755.9,699,755.9,699,755.9c-0.9-0.9-2.3-1.5-3.6-1.5c-1.2,0-2.7,0.5-3.5,1.5
				c-0.9,1-1.5,2.2-1.5,3.5c0.1,1.3,0.5,2.6,1.5,3.5c0,0,0,0,0,0c0.9,0.9,2.3,1.5,3.5,1.5c1.2,0,2.7-0.5,3.5-1.5
				c0.9-1,1.5-2.2,1.5-3.5C700.4,758.1,699.9,756.9,699,755.9L699,755.9z"/>
		</g>
		<g display="inline">
			<path fill="#21201C" d="M695.3,763c6.4,0,6.4-10,0-10C688.9,753,688.9,763,695.3,763L695.3,763z"/>
		</g>
		<g display="inline">
			<path fill="#21201C" d="M695.1,763.3c6.4,0,6.4-10,0-10C688.7,753.3,688.6,763.3,695.1,763.3L695.1,763.3z"/>
		</g>
		<g display="inline">
			<path fill="#21201C" d="M694.4,747.1c-0.1,0-0.2,0-0.3,0c-2.5-0.1-5.3,2.4-5,5c0.4,3.1,0.6,5.9,2.1,8.7c1.2,2.3,4.6,3.2,6.8,1.8
				c2.3-1.5,3.1-4.4,1.8-6.8c-0.1-0.2-0.2-0.5-0.4-0.7c0.1,0.2,0.1,0.3,0.2,0.5c-0.3-0.3-0.3-1.1-0.4-1.5c-0.1-0.4-0.1-0.3,0,0.2
				c0-0.2-0.1-0.4-0.1-0.7c-0.1-0.5-0.1-1-0.2-1.5c-1.7,1.7-3.3,3.3-5,5c0.1,0,0.2,0,0.3,0c2.6,0.1,5.1-2.4,5-5
				C699.3,749.3,697.2,747.2,694.4,747.1L694.4,747.1z"/>
		</g>
		<g display="inline">
			<path fill="#21201C" d="M688.6,745.1c0,1,0.4,1.9,0.5,2.9c-0.1-0.4-0.1-0.9-0.2-1.3c0,0.1,0,0.1,0,0.2c0,0.7,0.1,1.3,0.4,1.9
				c0.2,0.6,0.5,1.2,1,1.6c0.9,0.9,2.3,1.5,3.5,1.5c1.3-0.1,2.6-0.5,3.5-1.5c0.8-0.9,1.6-2.2,1.5-3.5c-0.1-0.7-0.1-1.4-0.3-2.1
				c-0.1-0.3-0.2-0.6-0.2-0.8c0.1,0.4,0.1,0.9,0.2,1.3c0-0.1,0-0.1,0-0.2c0-1.3-0.6-2.6-1.5-3.5c-0.9-0.9-2.3-1.5-3.5-1.5
				c-1.3,0.1-2.6,0.5-3.5,1.5C689.2,742.6,688.6,743.8,688.6,745.1L688.6,745.1z"/>
		</g>
		<g display="inline">
			<path fill="#21201C" d="M695.2,726.1c0,0-0.1,0-0.1,0c0.4,0.1,0.9,0.1,1.3,0.2c0,0-0.1,0-0.1,0c0.7,0.4,1.5,0.9,2.2,1.3
				c0,0-0.1-0.1-0.1-0.1c0.3,0.3,0.5,0.7,0.8,1c0,0,0-0.1-0.1-0.1c0.2,0.4,0.3,0.8,0.5,1.2c-0.4-1.3-1.2-2.6-2.4-3.2
				c-0.8-0.4-1.7-0.8-2.6-0.7c-0.9,0-1.9,0.2-2.6,0.7c-0.3,0.3-0.7,0.5-1,0.8c-0.5,0.5-0.8,1-1,1.6c-0.2,0.4-0.3,0.8-0.3,1.3
				c-0.1,0.7-0.1,1.3,0.1,2c0,0,0,0.1,0,0.1c0.2,0.8,0.7,1.6,1.3,2.2c0.6,0.6,1.4,1,2.2,1.3c1.8,0.5,3.6-0.1,4.9-1.3
				c0.7-0.7,1.3-1.7,1.6-2.6c0.4-1.2,0.1-2.7-0.5-3.9c-0.6-1-1.8-2-3-2.3c-1.3-0.3-2.7-0.2-3.9,0.5c-1.1,0.7-1.9,1.7-2.3,3
				c0,0,0,0.1,0,0.1c0.2-0.4,0.3-0.8,0.5-1.2c0,0.1-0.1,0.2-0.1,0.2c0.3-0.3,0.5-0.7,0.8-1c0,0-0.1,0.1-0.1,0.1
				c2.8,0.7,5.6,1.5,8.4,2.2c0,0,0-0.1,0-0.1c-0.8,1.9-1.5,3.8-2.3,5.6c0,0,0,0,0.1-0.1c-1.3,0.2-2.6,0.3-3.9,0.5c0,0,0.1,0,0.1,0
				c-1-0.8-2-1.5-3-2.3c0,0,0,0.1,0.1,0.1c-0.2-0.4-0.3-0.8-0.5-1.2c0.3,1,0.7,1.8,1.5,2.5c1.1,1,2.3,1.5,3.8,1.6
				c1.2,0.1,2.7-0.6,3.5-1.5c0.9-0.9,1.5-2.3,1.5-3.5c-0.1-1.3-0.5-2.6-1.5-3.5C697.7,726.7,696.6,726.2,695.2,726.1L695.2,726.1z"
				/>
		</g>
		<g display="inline">
			<path fill="#21201C" d="M690.1,732.3c0.2-0.1,0.3-0.3,0.5-0.4c0.8-0.2,1.7-0.5,2.5-0.7c-0.1,0-0.2,0-0.3,0c-2.5,0.1-5.3,2.2-5,5
				c0.2,1.8,0.4,3.5,0.6,5.3c0.2,1.4,0.5,2.5,1.5,3.5c0.9,0.9,2.3,1.5,3.5,1.5c2.5-0.1,5.3-2.2,5-5c-0.2-1.8-0.4-3.5-0.6-5.3
				c-1.7,1.7-3.3,3.3-5,5c1.7-0.1,3.2-0.6,4.3-1.8c1.8-1.9,2-5.2,0-7.1C695.2,730.5,692.1,730.3,690.1,732.3L690.1,732.3z"/>
		</g>
		<path display="inline" fill-rule="evenodd" fill="#21201D" d="M701.8,924.4c2.5,18.7,77.7,1,93.5,7.8c18.9,8.1,110.7-12.4,128.5-2
			c12.8,7.5,69.6-3.2,75,11c5.5,14.3,17.2-10.5,19,4.5c2.1,17.6,18.7-41,19.9-23.2c0.3,4.5-0.5,12.7,5.4,13.1
			c5.8,0.4,4.5-7.4,5.8-11.8c2-6.9,5.6-8.7,11.5-4.4c4.4,3.3,6.7,2.5,9.8-1.9c1.3-1.9,2.9-3.6,4.8-5c4-3,5-5.1,1.3-8.8
			c-4.6-4.6-3.1-9,2.1-12.2c3.8-2.3,8.4-4.5,8.7-9.1c1-13.4,9.1-24.8,9.2-38.5c0-6.8,3.1-13.6,10.1-16.1c6.3-2.2,8.6-6.2,9-12.3
			c0.1-2.1,0.5-4.3,2.2-5.5c4.6-3.4,4.7-8.1,5.1-13.2c0.9-14.5,2.3-29,3.4-43.5c0.3-4.3,1.6-7.4,6.5-7.7c5-0.3,7.5,2.3,8.1,7.1
			c0.2,1.4,0.6,2.9,0.8,4.3c1.9,13.8,3.8,27.6,5.6,41.5c0.5,3.9,0.9,7.6,5.2,9.2c3.5,1.3,4.7,4.5,4.9,7.7c0.3,6,2.8,9.7,8.6,11.6
			c4.8,1.5,7.8,5.1,9.1,9.9c3.2,12.3,6.6,25,8,37.1c1.2,10.8,7.1,12.8,13.2,15.7c4.8,2.2,6.8,4.6,5.3,9c-2.9,8.5,1.9,10.6,8.5,10.9
			c8.6,0.4,16.2-1.9,24.5-5.6c9.2-4,12-8.6,11.8-17c-0.1-6.7,3.7-7.5,9-7.4c15.3,0.2,31,2.9,45.2-5.8c0.7-0.4,1.8-0.6,2.5-0.3
			c6.1,2.3,9.1-0.4,11-6.1c1-3,4.3-3.6,6.7-2.6c15.1,6.2,27.8-4.5,41-7.6c12.2-2.8,24.5-8,37.3-10.3c0,41.7-0.1,83.4,0.2,125.1
			c0,5.2-1.1,6.3-6.3,6.3c-110.2-0.2-220.4-0.1-330.7-0.1c-351.7,0-703.3,0-1055,0.2c-6.6,0-8.1-1.5-8-8
			c0.4-35.7,0.2-71.4,0.2-107.1c2.5-1.1,2.8-1.3,5.3-2.4c0.9,0.8,1.9,1.6,2.8,2.5c0.9,3.4,1.5,6,2.4,9.4c-3.3,8.6-0.5,16.9,0.2,25.3
			c0.3,3.2,2.8,7.7,6.9,4.6c3.5-2.7,8.3-3.7,10.8-6.4c5.4-5.8-5.4-5.6-5-10.3c0.1-1.3-0.7-2.8-1.1-4.2c5.9-10,14.3-14.6,26.1-12.2
			c6.6,1.3,7.2-4.1,9.2-8.2c1.6-3.4,0.4-7.9,3.7-10.5c11.1-8.5,10.2-20.6,10.3-32.4c0-10.6,1.6-20.2,12-25.9c2.2-1.2,2-3.9,2.7-6.1
			c2.1-5.8,4.8-11.5,12.5-10.7c5.8,0.6,6.6-3.4,7.5-7.5c3.5-16.8,7-33.6,10.4-50.4c1-4.8,1.3-9.8,8.6-9.1c7.3,0.6,7,5.6,7.2,10.6
			c0.7,16.6,1.5,33.1,2,49.7c0.2,5.1,0.9,9.2,6.9,10.2c1.6,0.3,4.2,1.3,4.4,2.4c2.9,15.5,20.5,25.5,15.2,44.6
			c-2.6,9.3-2.5,20.3,6.1,28.5c1.1,1.1,1.9,3.2,1.8,4.7c-1,10.3,4.1,14.5,13.6,13.5c9-1,11.4,7.5,17,11.2c2.6,1.7,0.3,5.8-1.8,7.6
			c-6.6,5.7-4.2,9.5,2.1,12.8c-0.9,3.6,0.7,5.2,4.1,5.9c9.2,2,11.8-0.4,12-11.5c1.6-9.7,3.3-19.3,4.8-29c0.7-4.1,1.8-7.2,7-6.8
			c4.9,0.4,7,2.6,7.1,7.6c0.2,5.5,1,10.9,1.6,16.4c-0.1,0.2-0.2,0.5-0.2,0.7c0.1,0.4,0.3,0.9,0.4,1.3c0.3,1.9,0.5,3.7,0.8,5.6
			c0.3,8.8-2.8,19.2,10.7,21.8c1.5,0.3,3.3,3.6,3.5,5.7c1.1,9.4,6.9,10.4,14.9,9.9c39.2-2.7,78.4-3,117.7-3.3
			c26.6-0.2,53.8,5,79.7-6.7c7.9-3.6,10.2-5.6,5.6-13.4c-1.6-2.7-4-5-6-7.4c1.6-7.6,7-11.5,14.1-12.9c4.9-0.9,6.8-3.1,9-7.7
			c5.1-11,7.8-22.1,7.3-34.3c-0.3-6.5,2.4-12.6,8.2-16.6c2.6-1.8,3.7-4.4,4.4-7.3c1.3-6.4,2.6-12.5,11.3-12.9c3.3-0.1,3.5-4.1,3.9-7
			c2.1-15,4.4-30,6.3-45c0.6-4.2,1.5-7.5,6.5-7.7c5.4-0.1,6.9,3.5,7.3,7.9c1.4,13.9,2.7,27.8,3.9,41.7c0.4,5.2,1.4,9.8,6.7,12.2
			c0.5,0.2,1.2,0.6,1.4,1c5.1,14.8,21.9,24.5,18.8,43c-1,5.7,0.4,10.9,4.6,15.3c1.8,1.9,2.5,4.4,2.5,7.2c-0.1,7,3.6,10.4,10.8,10.7
			c7.2,0.3,11.2-2.2,8.7-9.6c-1.5-4.5,1.8-6.9,2.9-10.1c2.8-8.2,1.7-17.1,4.7-25.3c1-2.7,1.5-6.3,3.6-7.6
			c8.4-5.3,10.1-17.2,20.4-20.7c2.8-0.9,2.7-4.2,3-6.8c1.7-13.9,3.4-27.7,5.1-41.6c0.5-4.2,1-8.5,6.8-8.2c5.2,0.2,5.6,4,5.9,8
			c0.9,10.2,3,20.3,2.6,30.4c-0.5,13.9,8.7,23.3,14.5,34c2.7,4.9,7.8,9.1,11,14.8c0.2-0.1,3.6,19.1,3.7,19.1
			c3.6-0.1,1.8,25.7,5.6,29.3c0.1,0,1.7,2,3.9,6.9"/>
	</g>
</g>
<g id="Clouds">
	<path fill-rule="evenodd" fill="#EFEFEF" d="M367.7,229c1-2.8,1.7-5.9,1.8-9c7.5-4.9,12.5-13.3,12.5-22.9c0-13.7-10.1-25-23.2-27
		c-6.9-19.3-25.3-33-47-33c-11.6,0-22.2,4-30.7,10.6c-10.7-14-27.5-23-46.5-23c-19.3,0-36.4,9.4-47.1,23.8
		C179,141.3,168,137,155.9,137c-18.1,0-34,9.7-42.7,24.1C92.6,169.2,78,189.3,78,212.8c0,5.7,0.9,11.1,2.4,16.2H367.7z"/>
	<path fill-rule="evenodd" fill="#EFEFEF" d="M333.2,490c0.4-1.1,0.6-2.2,0.7-3.4c2.8-1.8,4.7-5,4.7-8.6c0-5.2-3.8-9.4-8.7-10.2
		c-2.6-7.3-9.5-12.5-17.7-12.5c-4.4,0-8.4,1.5-11.6,4c-4-5.3-10.4-8.7-17.5-8.7c-7.3,0-13.7,3.5-17.7,9c-3.2-2.7-7.4-4.3-11.9-4.3
		c-6.8,0-12.8,3.6-16.1,9.1c-7.8,3-13.3,10.6-13.3,19.5c0,2.1,0.3,4.2,0.9,6.1H333.2z"/>
	<path fill-rule="evenodd" fill="#EFEFEF" d="M1289.5,290c0.8-2.3,1.3-4.7,1.5-7.2c6-3.9,10-10.7,10-18.4c0-11-8.1-20.1-18.6-21.7
		c-5.5-15.5-20.3-26.5-37.7-26.5c-9.3,0-17.8,3.2-24.6,8.5c-8.6-11.2-22.1-18.5-37.3-18.5c-15.5,0-29.2,7.5-37.8,19.1
		c-6.9-5.7-15.8-9.1-25.4-9.1c-14.5,0-27.3,7.7-34.3,19.3c-16.6,6.5-28.3,22.6-28.3,41.5c0,4.5,0.7,8.9,1.9,13H1289.5z"/>
	<path fill-rule="evenodd" fill="#EFEFEF" d="M990.4,407c0.7-1.9,1.1-4,1.2-6.1c5.1-3.3,8.5-9,8.5-15.5c0-9.3-6.8-16.9-15.7-18.3
		c-4.7-13.1-17.2-22.4-31.8-22.4c-7.8,0-15.1,2.7-20.8,7.2c-7.2-9.5-18.7-15.6-31.5-15.6c-13.1,0-24.7,6.4-31.9,16.1
		c-5.8-4.8-13.3-7.7-21.5-7.7c-12.3,0-23,6.5-28.9,16.3c-14,5.5-23.9,19.1-23.9,35c0,3.8,0.6,7.5,1.6,11H990.4z"/>
</g>
</svg>
