<svg xmlns="http://www.w3.org/2000/svg" baseProfile="tiny" viewBox="0 0 5823 1890" xmlns:v="https://vecta.io/nano"><path fill="#21201d" d="M2 1412l19.6-5.8c7.2 4.3 13.3 10.2 14.3 20.2.1 1.3.4 2.6.8 3.9 4.4 13.7 6.6 27 1.9 41.7-5.2 16.4-2.1 33.7.1 50.6l5.3 38.6c.5 3.6 1.4 7.2 2.9 10.5 5.5 12.4 14 14.5 25.6 7.4 8.8-5.4 18.2-9.6 27-14.9 6.7-4.1 13.7-8.4 19.2-14 7.2-7.3 6-12.9-2.3-19-4-2.9-8.4-5.4-12.5-8.2-4.9-3.4-8.3-7.6-7.8-14.1.1-2.2-.2-4.9-1.3-6.8-4.5-7.7-1.1-13.7 3.3-19.9 14.4-20.2 32.2-35.4 56.9-41.2 14.9-3.5 29.7-2.9 44.6 0 16.1 3.1 24.3-.9 31.3-15.8 6-13 11.7-26.1 13-40.6.9-9.8 5.5-17.3 13.4-23.5 21.8-17.2 33.7-40.4 36.7-67.6 2.3-21.1 2-42.5 3.1-63.8.7-13.6 1.2-27.3 3.2-40.8 4.2-29 18.3-51.9 44.1-66.6 7.1-4.1 10.3-10 11.8-17.5 2.4-12.2 7.3-23.5 13.7-34.1 9-14.8 22.2-21.5 39.4-20.4 1.3.1 2.7.3 4 .4 13.1.4 20.9-4.5 24.7-17.2 3-10.2 5-20.7 7.1-31.1L486.5 802c.5-2.3 1.1-4.5 1.6-6.8 2.3-10.2 6.3-19.7 17.3-22.5 12.2-3.1 24.6-2.6 35.4 5.2 6 4.3 8.6 10.9 9.4 18.1.8 7.3 1.4 14.6 1.7 21.9l7.9 190.7c.4 10.3.7 20.6 2 30.8 1.8 13.8 10 22.1 23.7 24.8 2.6.5 5.2 1.1 7.8 1.9 8.1 2.4 13 6.6 15.7 15.8 3.8 13.3 10 26.1 16.5 38.3 7 13.2 16.1 25.3 23.6 38.3 6.3 10.9 12.4 22.1 17.4 33.6 9.4 21.8 10.5 44.4 4.4 67.4-5.6 21.1-8.8 42.3-4.9 64.2 3.6 19.9 11.6 37.6 26 51.8 8.5 8.5 12.2 17.8 10.8 29.6-.6 4.9-.1 10 .7 14.9 3.5 22.2 16.5 34 38.9 35.7 5.6.4 11.4.3 17-.3 15.7-1.7 28.8 3.5 39.8 14.6 4 4 7.5 8.5 11.4 12.6 6.3 6.4 12.5 13 19.3 18.8 5 4.2 6.6 8.7 5 14.9-2 7.4-6.5 12.9-11.8 18.2-4.4 4.5-9 9-12.5 14.2-6.1 9.3-5.2 17.5 2.8 25.3 5.4 5.3 11.9 9.4 18.1 14.2-1.2 15.3 2.6 20.8 18.3 23.8 8.1 1.6 16.5 2.2 24.7 2.2 9.3 0 15.8-5.4 18.9-13.9 2.3-6.5 3.7-13.5 4.7-20.3l9.1-65.2 11.3-69c.7-4.3 1.5-8.6 2.7-12.7 3.8-12.9 10.8-18 24.1-17.8 2 0 4 .2 6 .4 16.7 1.9 25.1 10.2 26.7 27l6.4 74.6c.3 3.6 1.2 7.2 2 10.7 3.1 15.2 2.5 30.5 2.3 45.8-.1 7.6.5 15.3 1.4 22.9 2.3 19.2 13.4 31.3 31.5 37.4 1.3.4 2.5 1.1 3.8 1.2 15.6 1.7 20.4 13 23 26.1.7 3.3 1.1 6.6 1.9 9.8 4.8 19.4 16.8 29.6 36.7 30.8 8.3.5 16.7.4 25-.1l132.7-7.2 116.9-3.4 168.9-2.6c59.3-1.2 118.6 0 177.9 2.7 35.6 1.6 71.3 1.9 106.9-1.5 44.1-4.2 86.6-14.3 126.5-34.1 5.9-2.9 11.6-6.5 16.8-10.7 6.2-5 8.2-11.8 6.2-19.7-2.7-10.9-8.1-20.4-14.8-29.2a208.05 208.05 0 0 0-15-17.4c-3.5-3.6-3.9-7.2-2.5-11.7 5.2-16.6 14.9-29.9 30.5-37.8 8.2-4.1 17.2-7.3 26.2-9.1 15.9-3.3 27.4-11.4 34.5-26 22.9-47.2 35.8-96.5 33.5-149.4-1.2-27.5 8.9-50.4 31-66.9 11.7-8.8 18.3-19.7 21.4-33.6 1.8-8.4 3.9-16.9 6.7-25 5.7-16.8 17.8-25.9 35.5-27.6 13.4-1.4 16.7-4 18.9-17.4 3.6-22 6.6-44.1 9.7-66.2l15.1-105.8 4.7-33.6c.3-2 .6-3.9 1.1-5.9 3.8-13.8 11.1-19.8 24.8-20.2 14.3-.5 24.1 5.9 28 19.2 2 7 3.1 14.3 3.8 21.6l14.8 161.2c.8 8.6 1.9 17.2 3.7 25.7 2.9 13.5 10.6 23.7 23.2 29.5 5 2.3 7.3 5.8 9.7 10.5 7 13.6 14.3 27.1 22.5 39.9 8.6 13.4 18.7 25.9 27.7 39.2 11.7 17.1 21.5 35.2 25.5 55.9 2.4 12.6 2.7 25.2.5 37.8-4.2 24.3 1.1 45.6 18 63.7 7.4 8 11 17.3 11.1 28.1 0 3.7 0 7.4.5 11 2.5 20.5 12 31.2 32.2 35.3 11.1 2.3 22.5 2.6 33.7-.6 13.4-3.8 19-12.4 17.2-26.2-.5-3.6-1.4-7.2-2.5-10.7-2.8-8.7-2.6-17.4 2.4-25 12.8-19.4 16.1-41.4 18.1-63.7 2.3-25.3 6.7-50 15.2-74.1 3-8.5 7.8-14.8 14.7-20.6 8.8-7.4 16.4-16.5 23.6-25.5 6.7-8.3 12-17.6 18.2-26.2 9.9-13.7 21.8-25.1 38.3-30.8 8.1-2.8 10.8-9.6 11.8-17.1l19.4-158.7 4.8-36.6c.6-3.9 1.7-7.8 3.2-11.5 3-6.9 8.4-11 16-11.9a41.02 41.02 0 0 1 7-.3c14.2.3 21.6 6.3 23.9 20.4 1.6 10.2 2.5 20.5 3.7 30.7l6.8 60.6c1.3 14.6 2.5 29.3 2.1 43.9-.9 27.1 5.5 52.2 18.3 75.7 6.8 12.6 14.6 24.6 22 36.9l20.7 34.1c3.7 5.9 7.7 11.6 11.9 17.2 3.2 4.3 6.6 8.4 10.2 12.3 15.9 16.9 27 35.8 29 59.7 1.1 13.5 4.9 26.8 7.6 40.2 1 5.1 3.3 9.7 5.5 14.5 3.6 8 5 17.2 5.9 26 2.4 22.8 4 45.8 6.2 68.7 1 10.4 3.8 20.1 10.7 28.5 3.8 4.6 5.9 10.4 9.1 15.5 4.5 7.3 8.7 15 14 21.6 2.4 3 7.2 4.8 11.2 5.6 8.3 1.6 20.4-7.6 21.4-16 .7-6.5 0-13.2.6-19.7.6-6.9 2.2-13.7 3.1-20.6 2.1-16.5 5-32.9 5.8-49.4l7.9-182.7 3.1-81.9c.3-9.3-1.4-17.8-7.8-25.1-22.9-26.2-37.1-56.7-42.9-90.9l-16.1-100.6c-2.6-16.1-6.3-32-8.3-48.2-2.9-22.8-7.1-45.5-5.9-68.5.3-4.8 1.6-9.6 2.9-14.3 2.1-7.6 4.7-15.2 6.9-22.8.3-1.1-.5-2.5-.8-3.8-1.6-7.1-3.5-14.2-4.7-21.4-4.5-25.5.6-48.7 16.1-69.7 10.9-14.7 21.2-29.9 31.9-44.7 6.1-8.4 10.9-17.4 14.2-27.3 5-15.2 10.3-30.2 15.8-45.2 4.3-11.8 6.8-13.4 20.2-13.5.6-9.1 1.9-18.4 1.4-27.6-.3-4.9-3.2-10-5.8-14.5-4.4-7.7-4.5-9.7 1.2-16.9 2.3-2.8 4.4-5.8 7-9.3-15.3-10.5-11.5-24-5.1-38.3-2.7.2-4.5.1-6.3.5-23.5 5.3-43.4-3.2-54.4-24.8-10.4-20.4-12.5-42.1-5-63.9 3.5-10 8.7-19.4 13.6-28.8 4.3-8.2 9.4-16.1 14.2-24.1 13.5-22.8 19.6-47.8 22.7-73.8 3-24.5 7.1-48.8 6-73.6-.1-1.5.6-3.1 1.2-5.4 7.7 3.3 10.6 9.3 12.5 16 4.3 15.9 5.1 32.2 5.6 48.5.2 5.3 0 10.6 0 15.9.7.1 1.3.1 2 .2 1-6.5 1.7-13 2.9-19.4l11.9-60.7c.5-2.6 2-5 3-7.4.9.1 1.8.3 2.6.4l5.8 47.9c1.9 16.1 3.5 32.2 7 48.5l1.5-10.3 6.3-47.5c1.1-6.9 3.4-13.5 12-17.5.6 4.9 1.2 8.9 1.5 13l5.6 84.8c1.4 25 8.6 48.3 19.1 70.9l19.6 43.7c7.6 17.7 6.8 35.1.7 53.4-7 20.9-27.2 29.5-47.1 24.4-3.5-.9-6.9-2.3-10.2-3.4l-11 19.1c-3.6 6.1-3.5 12 .2 17.9 1.4 2.3 3 4.4 4.3 6.8 3.1 5.8 3.1 10.2-1.7 14.5-6.5 5.7-8.2 12.4-7.3 20.6.5 4.3.2 8.7-.1 13-.9 12.5 4 22 14.8 28.4 1.1.7 2.3 1.3 3.4 2.1 3.8 3.1 6.5 6.9 5.7 12-.7 4.2-6.6 8.4-12.3 8.6-4 .1-8-.4-13.3-.7v32.9c3.7 1.6 7.3 2.6 10.3 4.5 3.8 2.4 7.3 5.5 10.8 8.5 2.4 2.1 4.4 4.8 7.1 6.4 4.2 2.5 6.3 6 6.1 10.6-.3 7.6-1.1 15.3-1.3 22.9-.2 6.6.2 13.2.1 19.8 0 2.9 0 6.1-1.2 8.5-4.8 9.4-10.2 18.6-15.3 27.9-1 1.7-2 3.5-2.5 5.4-1.6 5.3-5 8.1-10.4 9.5-8.1 2-9 3.4-9.3 11.8l-4.6 157.9c-.2 6.3 2.4 10.6 6.5 14.9l70.7 73.4c2.2 2.3 5.3 4.2 8.3 5 7 2 14.1 3.3 21.2 4.9 8.8 2 13.9 0 18.6-7.5.9-1.4 1.9-2.8 2.3-4.4 5.5-18.9 19.9-32.1 30.9-47.4 1.7-2.4 5.3-4.3 8.3-4.9 7.5-1.5 12.4-5.7 15.8-12.3 4-7.7 8.2-15.2 11.9-23 4.1-8.5 5.1-17.7 5.4-27.2.7-22.6 2.1-45.2 3.2-67.8.1-3 .8-6 .8-9-.6-46.2 15.1-88.1 34.6-129 4-8.4 8.5-16.6 13.4-24.5 12-19.2 29-30.7 51.7-33.7l67.3-9.5c9.5-1.1 15-5.1 17.6-14.5 3.3-11.8 7.2-23.5 11.9-34.9 4.5-11 10.1-21.7 15.6-32.3l28.4-53.8c3.8-7 7.8-13.9 11.9-20.8 7.8-13 13.3-26.4 14.8-41.9 1.2-13.3 2.9-26.1-.6-39.5-2.9-11.1-.8-22.3 3.2-33.3 6-16.6 11.1-33.5 20.7-48.5 3.5-5.5 4.6-11.7 4-18.2-.9-10.6 2.1-20.3 6-30 2.4-6.1 3.3-12.7 5.2-19 1.1-3.3 2.5-6.8 4.6-9.5 7.9-9.9 16.3-19.4 24.2-29.3 3.5-4.4 6.4-9.4 8.9-14.4 3.8-7.4 4.6-15.4 2.5-23.3-1.2-4.5-1.6-7.9 1.3-12.1 1.8-2.5 1.6-6.9 1.4-10.3-.6-8.9 0-11.4 8.2-14.8 12-5 16.1-14.2 17.9-26.4 2.5-17.4 2.1-35.2 7.7-52.2 2.6-7.9 6.2-14.5 12.9-19.5 8.7-6.5 15.4-15.6 26-19.8 5.4-2.1 7-7.4 7.6-13.1.8-7.3 1.5-14.7 3.7-21.6 6.3-20.6 22.5-31.3 44-29.8 6.6.5 6.6.5 11-2.5 3.6 14.2 12.4 23.1 26.3 27.3 2.5.8 4.5 3.4 6.6 5.4 2.5 2.4 4.7 5.1 8 8.9-.3 1.7-.8 4.9-1.5 8-2.8 12.4-2.2 13.2 9.5 17.3 6.2 2.2 12.4 4.9 18.1 8.1 14.6 8.1 22.1 20.9 22.4 37.6.1 7.3-.4 14.7-1.4 21.9-2.2 15.3 2.3 28.3 12.8 39.3 5 5.3 10.5 10.2 15.4 15.6 7.9 8.7 12.1 19 11.5 31-.2 3 .3 6-.1 9-1.1 8.6 1.1 14.8 9.2 20 4.9 3.1 9 9.4 10.8 15.1 5.7 18.4 10.4 37.1 15 55.8.9 3.6-.3 7.9-1 11.8-2.1 11.1-1.9 13.8 1.2 23.2 0 5.1-1 10.4.2 15.1 3.6 14.6 2 28.2-4.5 41.7-3.3 6.8-4.9 14.4-7.3 21.7-2.8 8.6-1.1 17.2.3 25.7 2 12 1.9 23.8-.8 35.7-.6 2.7-.7 6.1.3 8.6 7.2 18.7 8.3 38.3 9.8 57.9 1.1 14 2.7 27.9 8.2 40.9 3.6 8.5 7.5 17.3 13.3 24.4 10.3 12.6 16 26.6 18.4 42.4.6 3.9 1.4 7.9 2.3 11.8 2.5 11 7.2 20.2 17.3 26.8 12.4 8.1 22.6 18.7 30.3 31.4 2.7 4.4 5.9 7 11.3 6.6 10.1-.9 19 2.7 27.4 7.7l15.3 9.5c5.8 3.5 12 4.6 18.7 5.7 20.1 3.5 39.1 10 55 24 14.2 12.5 25.7 26.7 34.6 43.5 14.5 27.4 28.9 54.7 37.4 84.7 7.1 25.1 11 50.8 10.4 77-.3 13.2 2.9 25 10.2 35.8 5.2 7.7 10.9 15 16.3 22.6 3 4.3 5.7 8.9 8.6 13.5l-6.6 1.8 8.5 19.1c10.4-11.4 17.7-23.9 23.2-37.6 7.9-19.6 11.6-40.2 15.5-60.8.9-5-1.7-7-5.5-9.2-4.2-2.4-8.7-5.3-11.3-9.2-7.8-11.6-1.5-24.8 12.2-27 1.6-.3 3.3-.1 5-.2l3.7-.3c1.9-4.3-.1-6.4-3.3-8.3l-23.9-14.5c-11.1-6.4-21.1-13.9-28.4-24.7-2.2-3.2-5.4-6.3-8.8-7.9-22.4-10.5-32.1-29.2-33.6-52.7-1.4-21.5 3.2-41.8 16.3-59.4 11.6-15.5 27.2-24.1 46.4-26.4 6.7-.8 12.2.8 17.6 5 7.7 6.1 14.9 12.3 17.9 22.1.5 1.5 1.7 2.8 2.7 4.4 2.3-2 4.1-4.7 6.4-5.2 2.2-.5 4.9 1.1 7.4 1.9.6.2 1.2.9 1.8.9 18.4.8 32.2 13.6 49.3 19.2 2.6-3.4 3.2-11 9.8-8.1 4.1 1.8 7.1 6.2 11.1 10 .4-.1 1.7-.2 2.9-.8 11.9-5.8 23.3-6.2 35 1.5 6.3 4.2 7.8 3.5 18.8-.6-1.5 2.4-2.3 4-3.3 5.3-2 2.5-2.1 5 .2 7.1 12.6 11.6 14.7 27.4 15.7 42.9 1.5 23.2-5 44.1-20.8 61.7-13 14.6-29.7 20.8-50.3 20.7l-1.6 16.6c-.3 4 .1 8.1-1 11.8-1.6 5.4.8 7.4 5.3 8.6 2.2.6 4.6 1 6.7 2 6.2 2.9 9.3 8.8 8.6 15.5-.7 6.1-4.9 10.1-12.1 11.2-3.5.6-7.1.8-11.1 1.3l-4.7 43.2c-2.9 23.8-6.9 47.5-8.9 71.4-3.1 37-12.7 72.7-20.3 108.8-.7 3.4-1.1 7.8.5 10.5 10.5 17.7 12.1 37.8 16.4 57.3l2 9.9c3.9 0 7.8-.2 11.7 0 17.5.9 29 14.6 26.6 31.6-1.2 8.3-5.7 14.5-13 17.8-10.1 4.6-12.4 11.8-12 22.5 1 31.3.8 62.6 1 93.9v11.8l24.9-4.5c6.1-1.1 12.4-3.9 17.5 2.4.2.2.6.4.9.4 10.5-.9 15.1 6.2 17.7 14.4 2.8 9 1.4 17.8-5.5 25.1-.9 1-1.6 2.1-2.4 3.2.3.4.5.7.7.9 14.3 10.9 14.8 21.4 1.6 33.5-4.4 4-8.6 8.3-13.2 12.2-1.9 1.6-4.5 2.7-6.9 3.4-3.2.9-6.5 1.1-10 1.7-.2 4.7 2.1 6.8 6.1 7.7l26.1 6.3c11.6 2.7 23.1 2.8 34.6-.4 13-3.6 25.7-2.8 38.3 1.5l37.8 12.7c4.6 1.6 8.5 3 12.5-1.7 4.3-5.1 8.1-10.2 5.1-17-1.7-3.9-4.6-7.3-7.1-10.7-2.8-3.7-6.2-7-8.6-11-6.5-10.8-5.7-21.1 2.7-30.3 4.4-4.8 10.1-8.6 15.5-12.4 6.8-4.8 14.2-8.8 20.8-13.8 6.8-5.1 12.2-11.6 13-20.5 2.5-29.9 12.2-57.9 22.1-85.8 9.6-27.1 16.6-54.7 17.1-83.7.2-13.5 4.5-26.2 12-37.6 7.4-11.2 17.6-19 30.3-23.4 22.6-7.7 35-23.3 36.6-47.2.2-3.7.9-7.3 1.4-10.9.9-6.6 3.6-12.1 8.9-16.1 12.6-9.6 18-22.9 19.2-38.1l8.2-108.6 8-94.6c2.2-23 24.2-34.4 44.9-23.9 9.1 4.6 13.4 12.8 14.9 22.4l9.8 64.2 15.2 111.8 4.5 31.6c1.9 12.5 8.3 21.4 20.4 26 13.1 5 17.9 16.1 19.7 29 .3 2 .1 4 .3 6 1.7 21.7 12 37.3 33.3 43.9 22.6 7.1 35.1 22.5 40.9 44.8 10.8 41.5 21.8 83 28.7 125.5l5 33.6c3.4 22.3 14.7 38.9 35.1 49 6.3 3.1 12.6 5.9 18.8 9.2 5 2.6 10.1 5.3 14.6 8.6 8.9 6.7 11.8 15.7 8.5 26.5-1.5 5.1-3 10.2-3.9 15.5-2.4 14 3.6 24.7 17.2 28.5 8.2 2.3 17 3.2 25.6 3.5 16.7.8 33.4-.8 49.4-6 18.6-6.1 36.9-13.3 55.1-20.6 6.4-2.6 12.3-6.6 18-10.6 15.5-11 22.9-26.4 23.9-45.1.3-5 0-10 .2-15 .7-17.5 9.1-26.6 26.6-27.2 15.3-.5 30.7-.1 46 .5 25.6 1.1 51.2 2.1 76.9-.5 25.8-2.7 50.4-9.3 72.9-22.3 6.2-3.6 11.8-4.4 18.9-2.2 18.3 5.6 29.8-.1 37.9-17.6 1.1-2.4 1.9-5 2.9-7.4 4.9-12.4 14.3-16.8 27.2-12.9 7 2.1 13.9 4.7 21 6.2 20.8 4.7 41.2 1.7 61-4.8 14.5-4.8 28.5-11 43-16.1 18.2-6.4 36.4-12.6 54.8-18.3l91.8-27.2c13.4-3.9 26.9-7.4 40.5-10.7 3.3-.8 7-.5 10.4-.8v542H2.9L2 1412zm2983.7-157.1c-.4 3.9-.9 7.8-1.1 11.8l-2.8 76.9c-1 56.8-6.7 113.5-5.1 170.4 0 1.7-.2 3.3-.4 5l-6.7 74.4c-.6 6.2.6 11.8 2.7 17.4 2.6 7.1 6 14.1 7.4 21.4 1.1 6 3.7 10.5 7.7 14.5 5.5 5.6 10.7 11.2 19.2 13.1 7.9 1.8 6.9 2 13.7-3.4 4.1-3.3 5.7-7 7.4-11.1l14.3-36.1c3.5-8.9 7.7-17 14-24.7 14.7-18 32.5-30.7 54.7-36.4 19.9-5.1 40.3-8.4 60.6-12 14.7-2.6 29.5-4.3 44.1-6.3 3.9-17.1 5.2-33.6 1.7-50.2l-6.4-29.2-17.9-75.7c-2.5-11.2-4-22.6-6-33.9-1.5.4-2.3.3-2.7.7-18.8 16.7-41.7 22.9-65.8 26-15.1 2-27.6-3.1-36.6-15.6-3.8-5.4-6.9-11.3-10.1-17.2-5.8-10.6-12-20.8-21.6-28.5l-64.3-51.3zm431.7-27.8c-16.9 16.5-36.2 21.7-57.9 18.7-5.6-.8-11-2.5-16.6-3.5-6.4-1.2-12.7-.9-18 3.6-1.6 1.4-3.6 3.7-3.5 5.6.2 12.6.6 25.2 1.6 37.8 1 11.9 4.8 23.9 4 35.6-1.6 24.2-3.5 48.5-10.2 72.1-6.8 24.3-14.5 48.4-21.6 72.6-5.2 17.6-7.1 35.6-5.5 54.9l30.1-6.8c0-4.5.2-7.8 0-11.1-.3-4.3-1-8.6-1.5-12.9-1.6-12.8 2.6-19.6 14.4-23.9 2.4-.9 4.8-1.7 7.4-2.6 0-3-.2-5.3 0-7.6 1.4-16.8 11.2-25.3 27.9-23.9 11.9 1 22.5 5.5 32.4 11.9 18.4 12 26.1 9.6 32-12 4.8-17.9 8.3-36.3 11.6-54.6 2.5-13.7 5.5-26.8 18.6-34.8.4-.3.5-1.2.7-1.9l-45.9-117.2zm714.5 296.3l35-9c-9.2-14.6-6.8-26.7 6.1-36.5-1.6-2.3-2.6-4-3.9-5.5-7.5-8.6-13-18.1-17.4-28.8-4.7-11.3-12-21.6-18.6-33-8 10.2-14.4 19.6-22.2 27.6-6.7 6.9-8.3 13.4-5.5 22.4 4 13.3 3.7 26.8-.3 40.3-1.2 3.9-.8 8.3-1.1 12.8 16.8-3.3 16.8-3.3 27.9 9.7zM2963.5 412.1c-4.9 6.6-10.3 12.5-14.1 19.3-3.9 7 .6 16.1 7.9 18.8 6.5 2.4 14.9-1.9 16-9.2.6-3.9-1-8.4-2.4-12.3-1.8-5.2-4.4-10.1-7.4-16.6zm-1.9 475.4l1.8-33.8c-17.5 3.8-25.3 16-21.1 32.1l19.3 1.7zm74.7-428.7c3.2-14.8-1.8-27.5-12.6-33.3-8.4 15.5-3.5 28.9 12.6 33.3zm-78.2 478.1c.5-.2 1-.4 1.5-.5l1.7-24.8-10.3 3.1 7.1 22.2zm415.6 275c13.8 1.7 16.2.4 17.7-9.1l-17.7 9.1zm-394.3-900.2h-.9v12.5h.9v-12.5z"/><path fill="#d9d7d6" d="M2958.1 936.9l-7.1-22.2 10.3-3.1-1.7 24.8c-.5.2-1 .3-1.5.5z"/><path fill="#d2d0cf" d="M3373.7 1211.9l17.7-9.1c-1.5 9.5-3.8 10.9-17.7 9.1z"/></svg>