<svg xmlns="http://www.w3.org/2000/svg" baseProfile="tiny" viewBox="0 0 2070 2069" xmlns:v="https://vecta.io/nano"><path fill="#e39c27" d="M1016 2h46l38.1 1.9c4 .2 8 .2 12 .5C1176 9.3 1239 19.3 1301 35.6c320.3 84.1 582.4 317.2 702.3 625.1 34.1 87.7 56.1 178.3 65.1 272l3.7 43.4v112l-1.8 24.1c-.7 32.4-5.4 64.4-10.8 96.2-17.7 105.5-50.3 206.2-100.1 300.9-120.3 229-300.4 392.5-540.2 489.7-74.3 30.1-151.4 50.5-230.8 61.3-28.7 3.9-57.6 6.3-86.3 9.4l-34 2.3h-60l-33.7-2.3c-4.3-.5-8.6-1.1-12.9-1.3-58-3.8-115.2-12.9-171.5-27-191.4-48-356.9-142-494-283.9C122.5 1577.9 26.6 1362.7 6.1 1114c-.1-1.3-.1-2.7-.2-4l-.6-11.6c0-3.3.3-6.6 0-9.9-.9-9.5-2.1-19-3.2-28.5v-64c1.2-7.8 3-15.7 3.4-23.5 3-50.6 9.7-100.7 20.4-150.3 44.5-206.4 142.5-383.3 294.1-530C456.5 160 618.1 72.5 803.1 28.8c57.5-13.6 115.7-22 174.7-24.9L1016 2zm21.7 1181.5l-593-593-234.4 234.4 827.8 827.8 827.5-827.5-234.8-234.8-593.1 593.1z"/><path fill="#f2d09d" d="M5.3 1098.4L2 1098v-38l3.2 28.5c.4 3.3.1 6.6.1 9.9z"/><path fill="#f1ce98" d="M1102 2069.7v2.3h-34l34-2.3z"/><path fill="#f1ce97" d="M977.9 3.8c.3-.6.4-1.2.1-1.8h38l-38.1 1.8z"/><path fill="#f1ce98" d="M1100 2c-.3.6-.3 1.3.1 1.9L1062 2h38z"/><path fill="#f2d09d" d="M974 2072l.3-2.3 33.7 2.3h-34z"/><path fill="#f1cd95" d="M2072 1112l-.9-.1-.9.2 1.8-24.1v24z"/><path fill="#22201c" d="M1037.7 1183.5l593.1-593.1 234.8 234.8-827.5 827.5-827.8-827.8 234.4-234.4 593 593z"/><path fill="#f2d09d" d="M6.1 1114l-.2-4c0 1.3.1 2.7.2 4z"/></svg>