<svg xmlns="http://www.w3.org/2000/svg" baseProfile="tiny" viewBox="0 0 1920.8 1200.7" xmlns:v="https://vecta.io/nano"><path d="M.8 1034.3V.8h1920v1014c-7.6 2.1-15.4 3.9-22.9 6.3-16.4 5.2-33.2 9-49.1 16-9.6 4.3-19.9 5.9-30.2 1.1-1.3-.6-2.9-.6-4.4-.6-3.5 0-4.6 2.7-5.7 5.5-3 7.3-6.7 9-14.1 7.4-1.7-.4-4 0-5.6.8-9.5 5.3-19.6 7.8-30.4 7.8-11.9 0-23.7-.1-35.6-.1-4.6 0-7 2.5-7.2 7-.1 1.4-.1 2.7-.1 4.1-.3 8.1-3 15.1-10.7 18.8-7.4 3.5-15 6.5-22.8 9.1-7 2.4-14.3 2.8-21.7 1.4-6.3-1.2-9.2-5.7-7.4-11.9.2-.8.5-1.7.7-2.5 1.4-5.3.2-8.4-4.7-11.1-3.2-1.8-6.5-3.2-9.7-4.9-6.5-3.5-9.7-9.1-11.1-16.2l-11.4-53.7c-1.4-6.1-5.3-11-11.8-12.9-8.5-2.5-12.2-8.5-12.7-16.8-.3-4.9-2.5-8.2-6.9-10.1-3.2-1.4-5.4-3.6-5.9-7.1l-3.1-22.1-6.6-45.6c-1.2-8.8-4.1-11.3-12.8-10.7-4 .2-6.8 2.3-7.2 6.2-1 8.8-1.7 17.6-2.5 26.4-.3 3.6-.4 7.1-.7 10.7l-2.3 29.5c-.4 5.6-1.2 11.4-5.7 14.9-3.7 2.9-4.4 6.6-4.7 10.2-.6 7.7-4.3 12.3-11.1 14.9-11.5 4.3-14.5 12.5-15.1 22.1-.5 7.6-1.7 15-4 22.2-3.2 9.9-7.6 19.5-8.2 30.1-.3 5.5-3.7 8.8-8 11.6-2 1.3-4.2 2.5-6.2 3.8-5 3.3-6.3 8.2-3.3 13.3.9 1.6 2.4 2.8 3.4 4.4 1.1 1.8 3.1 3.6 1.3 6-1.7 2.4-3.9 3.3-6.8 2.2-3.2-1.2-6.5-2.7-9.8-3.3-4.3-.8-9-2-13.2-1.1-6 1.3-11.5.9-17.1-1.1l-5.9-1.9c3.6-2.7 6.9-4.8 9.8-7.4 4.7-4.3 4.5-7.1.1-10.7.8-2.9 2.3-5.6 2.2-8.3-.3-5.1-5.9-8.7-11.1-7.6l-9.1 1.7c-.2-1-.4-1.7-.4-2.4l.1-34.9c0-1.6 1.5-3.5 2.9-4.5 4.2-3 6.1-6.3 5.1-10.3-.9-3.7-5-6.8-9.7-6.8-2.5 0-3.2-.9-3.8-3.3-1.5-6.3-3.5-12.5-5.2-18.8a10.17 10.17 0 0 1-.2-3.9c1.8-8.4 4.2-16.6 5.3-25 2.2-15.5 3.6-31.1 5.5-46.6.1-.9 1.6-2.3 2.4-2.3 3.2.1 5.2-1.5 5.6-4.2.4-3.2-1.6-4.9-4.8-5.5-.8-.2-2-1.5-2-2.4-.2-2.2-.1-4.5.4-6.7.2-1.1 1.3-2.4 2.4-2.8 2-.8 4.3-.9 6.3-1.7 12.6-5.1 16.7-17.6 15-30.2-.4-3-1.5-6.2-3.3-8.5-1.5-2-1.9-3.4-1-5.5.1 0 .1-.1.2-.1 0 .1-.1.1-.1.2-1.9 0-4.2.6-5.6-.2-3.8-2.2-7.4-2.4-11.4-1.1-.8.2-2.1 0-2.6-.5-2.5-2.7-4-2.7-6.1.7-6.9-3.2-13.5-7.5-21.7-6.8-3.2-6.6-8.1-11-16.3-8.4-7.6 2.4-12.5 7.4-14.8 14.9-2.7 9-3.4 18.1 3.2 25.7 4 4.6 9 8.5 13.9 12.3 3.5 2.8 7.6 4.9 11.3 7.4.9.6 1.6 1.6 2.4 2.4-2.7 1-5.1 1.3-6.7 2.6-3.1 2.6-2.1 7.5 2.4 9.9 2.7 1.4 2.9 3.3 2.5 5.3-1.4 6-2.6 12.1-4.7 17.9-1.6 4.2-4.4 8-6.7 12-.4-.1-.8-.2-1.3-.3-.8-1.6-2.6-4.1-2.1-4.7 2.5-3.2-.4-4.5-1.7-6.2-4.9-6.1-8.8-12.5-8.4-20.9.2-4.6-.3-9.2-1-13.7-2.3-15-8.9-28.3-16.5-41.1-5.2-8.9-12.7-15.1-22.9-17.9-5-1.4-10.3-1.8-14.9-5.1-2.9-2.1-7.1-2.5-10.6-3.7-1.2-.4-2.4-1.1-3.2-1.9-3.3-3.4-6.1-7.3-9.8-10.2s-5.5-6.4-6.6-10.8c-1.3-5-2.3-10.6-5.2-14.4-6.2-8.1-7.8-17.1-8.9-26.7-.6-5.2-1.6-10.3-2.3-15.4-.2-1.6-.4-3.1-.4-4.7.1-3.4.9-6.8.2-10-1.4-6.6.3-12.5 2.8-18.4.7-1.7 1.3-3.6 1.2-5.4-.3-5.5-1.9-11-1.1-16.3 1-6.7-.2-12.9-1.9-19-1.2-4.5-2.2-9.3-6.6-12.1-1.8-1.2-2.4-2.5-2.3-4.6.3-5.2.3-10.3-3.5-14.4-1.6-1.8-3.3-3.4-5-5.1-3.9-4-5.6-8.4-4.6-14.2.6-3.2.5-6.8-.2-10-1.4-6.6-6.6-9.7-12.5-11.4-3.3-1-4.9-2.4-3.5-6.1.8-2.2-1.6-6.4-4.3-7.2-4.7-1.4-7.5-4.6-8.9-8.8-1.3.2-2.4.5-3.5.4-8-.6-14.4 4-15.6 13.2-.4 2.9.1 6.5-3.3 8.6-2.9 1.8-5.7 3.8-8.2 6-1.6 1.3-3.4 3.1-3.8 4.9-1.4 6.1-2.7 12.4-3.2 18.7-.4 4.3-1.7 7.1-5.7 8.8-1.1.4-2.5 1.6-2.6 2.6-.5 4.1-.8 8.2-.8 12.3-.1 6-3.8 9.9-7.2 14.1-1.9 2.4-5.4 4.5-5.7 7.1-.9 6.6-5.6 12.2-4.5 19.2.2 1.6-.5 3.4-1.2 4.9-1.8 4.4-3.9 8.7-5.8 13-2.1 4.7-4 9.8-2.3 14.5 2.3 6.6.9 13-1.1 18.5-3.8 10-9 19.6-14.5 28.9-4.7 8-8.5 16.3-10.9 25.3-1 3.7-3.3 5.6-7 6.1l-19.9 2.8c-6.8.9-13.2 2.7-17.1 8.9-11 17.1-17.7 35.7-18.2 56.2-.1 4.1-.3 8.1-.5 12.2-.2 4.9.6 10-.7 14.5-2 7.1-4.3 13.9-12.3 17.9-4.4 2.2-6.7 8.5-9.9 12.9-1.9 2.5-3.7 6.9-5.7 7-4 .3-9.2-.7-12.1-3.2-8.3-7.5-15.8-15.9-23.4-24.2-1.3-1.4-2.3-3.6-2.3-5.5l.8-46c.1-2.5.4-4.9.8-7.4.1-.6.6-1.4 1.1-1.6 5.2-1.3 6.2-6.3 8.5-10 1.4-2.2 2.7-4.7 2.9-7.1.5-4.5.1-9.1.2-13.7.1-2.3-.3-3.9-2.6-5.2-2.7-1.4-5.2-3.5-7.6-5.4-.6-.4-1-1.4-1-2.2-.1-2.8 0-5.7 0-8.7 1.5-.1 2.7 0 3.7-.3 1.7-.7 3.4-1.7 5-2.6-.9-1.6-1.5-3.6-2.9-4.6-3.3-2.7-5.5-5.7-5.1-10.2.2-1.7-.2-3.5.1-5.2s.8-3.7 2-4.9c2-2.2 2.2-3.9.5-6.2-1.5-2.1-2.7-4.5-1-7.3l3.6-6c10.2 4.2 17.2-1.1 19.2-7.7 1.5-4.9 2.6-9.8.5-14.8-1.1-2.5-1.6-5.2-2.9-7.6-8-14.7-11.9-30.4-11.6-47.1.1-5.9-1-11.8-1.7-18.8-1.3 1.5-2.5 2.3-2.8 3.3-1 4.5-1.8 9-2.7 13.5-.2 1.1-.7 2.1-1.1 3.1-.3-.1-.7-.3-1-.4l-3.1-25.9h-1c-3.2 7.3-3.7 15.3-5.1 23-.3.5-.6 1-.9 1.6-.1-1.5-.3-2.9-.4-4.4.1-.1.2-.2.2-.3l-.3-.6c-.8-4.5-1.4-9-2.5-13.5-.3-1.2-2.2-2.1-3.4-3.1-.1 1.3-.2 2.6-.2 3.9 0 .4.1.8 0 1.1-1 7.7-2.4 15.4-2.9 23.2-.6 9.6-4.3 17.9-9.3 25.9-5.8 9.3-10.6 18.7-7.1 30.1 2 6.3 4.9 11.9 12.2 13.2 2.9.5 5.9.5 8.9.7-.6 3.1-2.8 6.5.5 9.5 2 1.8 1.5 3 0 5-1 1.3-1.6 4.2-.8 5.3 3.2 4.7 2.7 9.5 1.3 14.5-4.8.4-5.5 1.5-7.3 7.3-2 6.4-3.9 13-7.1 18.8-3.8 6.8-9.3 12.7-13.6 19.2-4.4 6.6-5.5 14-4.1 21.8 1 5.5 2.2 10.8-.7 16.3-1.4 2.7-1.6 6-1.9 9.1-.1 1.5 1 3.2 1.3 4.8l3 22.4 6.8 39c1.8 11 6 20.8 13 29.3 2.3 2.8 3.9 5.8 3.4 9.8-.5 4.5-.7 9.1-.8 13.7l-.9 35.5c-.3 9-.8 18-1.4 27l-3 40.5c-.2 3.2-2.2 5.2-4.9 5.8-1.9.4-5.1.1-6-1.2-6.8-9.6-12.8-19.7-12.5-32.2.1-5.2-.3-10.5-1.3-15.6-1.6-7.9-4.1-15.7-5.9-23.5-1.1-4.8-1-10-4.6-13.9-9.5-10.2-16-22.4-23.4-34-4.5-7.2-8.1-14.9-8.9-23.4l-3.9-49.8c-.3-3.5-1.1-6.9-5.2-8.3-7.2-2.4-12.5 1.7-12.7 9.6-.2 5.1-.9 10.2-1.5 15.3l-3.7 30.1c-.7 5.3-1.7 10.6-2.2 15.9-.3 3.2-1.2 5.8-4.3 6.9-5.6 2-9.4 6-12.8 10.6-4 5.4-8 11-12.7 15.8-3.1 3.2-5.7 6.3-6.2 10.7-.1.6-.5 1.1-.6 1.7-1.3 6.3-3 12.5-3.8 18.9-.9 7-1.3 14.1-5 20.4-2.2 3.7-3 7.3-1.4 11.8.8 2.4.3 6.8-1.3 8.2-5.4 4.4-11.8 4.3-18.1 1.5-5.4-2.3-7.4-6.6-7.3-12.2 0-4.4-1.2-8.3-4.3-11.9-5-5.7-6.9-12.3-5.7-20 .7-4.3.4-9-.3-13.4-1.4-9.5-7.3-16.9-12.5-24.6-4.3-6.4-8.2-13-12.3-19.4-.9-1.4-2-3-3.4-3.9-4.5-2.8-7.4-6.6-7.9-11.9l-1.6-17.4-3.7-37.4c-.6-5-1.4-10.1-3.1-14.8-1.5-4.2-5.8-4.2-9.6-3.8-3 .3-5.8 1.7-6.3 4.8-1.5 8.6-2.7 17.3-3.9 26l-2.7 19.1-1.8 12.5-2.3 14.4c-.5 3.6-2.7 5.3-6.2 5.6-5.3.5-9.4 2.9-11.4 8.1-.8 2.3-1.4 4.6-1.9 7-1.1 4.7-2.2 9.5-6.5 12.4-8.1 5.6-11.5 13.4-11.7 23-.1 6.3.4 12.8-.9 18.9-1.9 8.9-4.8 17.5-7.8 26.1-2.6 7.5-7.4 12.8-16 14.1-7.8 1.2-13 6-15.9 13.3-1.1 2.6-.9 4.5 1.3 7 3.4 3.8 5.9 8.4 8.5 12.8 1.8 3 1 6-2 7.7-5.4 3-10.9 6.1-16.6 8.4-15.3 6-31.4 7.5-47.6 7.5-14.8-.1-29.7-1.1-44.5-1.2-24-.1-48 .3-72 .5-.3 0-.6.1-.9.1l-42.6.9-20.9.8-42.8 2.1c-6.3.2-10.8-3.3-12.6-9.1-.5-1.6-.6-3.4-1-5.1-1-3.8-2.4-6.9-7.1-7.9-7.4-1.6-12.5-7.5-12.2-14.4.7-17-3.2-33.7-3.9-50.6-.2-5-4.6-8.1-10.6-8.2-5.5 0-8.1 2.5-8.7 8.2-.2 2.3-.9 4.5-1.3 6.8l-3.9 24.3c-.9 6-1.2 12.2-2.4 18.1-.5 2.6-.9 5.6-4.1 7.3-5 2.6-9.7 1.4-14.3-.5-1.5-.6-3.1-2.8-3.2-4.4-.2-2.3-1.1-3.4-2.9-4.6-6.4-4.3-6.7-8.8-1.3-14.4 1.9-1.9 3.8-4.1 4.8-6.5.6-1.5 0-4.1-1-5.5-1.9-2.6-4.3-4.8-6.8-6.8-3.5-2.9-6.9-6.4-10.9-8.1-3.2-1.3-7.4-.4-11.1-.5-6.9-.2-11.6-3.8-13-10.5-.6-2.9-.4-5.9-.9-8.8-.4-2.1-.8-4.6-2.1-6-10.4-11-12.3-23.6-8.6-37.9 1.3-5.2 1.6-10.8 1.2-16.1-.7-8.9-6.1-16-10.4-23.5-3.8-6.5-7.8-13.1-10.4-20.1-1.5-3.9-3.4-6-6.9-6.6-7.7-1.3-9.4-6.2-9.8-12-.8-12.9-1.1-25.8-1.6-38.8l-.9-32.1c-.1-2.5-.2-5-.7-7.4-.9-4.4-4.1-6.4-8.2-7-3.9-.5-8.3-1-10.5 3.3-1.5 2.9-2.1 6.3-2.8 9.6l-7.5 35.1-7.6 36.6c-.7 3-1.6 6.4-5.4 7.2-2.5.5-5.2.3-7.7.9-2.7.7-6.1 1.3-7.5 3.2-3 3.9-5.5 8.5-7 13.2-1.1 3.4-2.3 5.9-5.3 7.7-9.8 5.8-13.3 15.4-14.3 25.9-.7 7.9.3 16-.3 23.9-.9 11.4-3.9 21.9-13.9 29.3-1.9 1.4-3 4.2-3.8 6.5-1.6 4.7-2.4 9.7-4.2 14.3-1.9 5-5.4 5.9-10.8 5.3-14.1-1.5-23.3-.3-32.9 13.1-3.6 5-1.6 12.8 3.8 15.9 5.4 3 5.5 4.6 1 8.7-.5.5-1.1.9-1.8 1.2-4.5 2.5-9 4.8-13.3 7.5-2.3 1.5-4.1 1.1-5.4-.9-1.2-1.9-2.1-4.2-2.6-6.4-.7-3.1-1.1-6.4-1.4-9.6-.4-5.8-1.7-11.9-.6-17.4 1.3-6.4 1.1-12.2-1.1-18-1.3-2-2.7-3.3-3.7-4.6zM252.1 47.6c-.8-.5-1.6-1.1-2.4-1.6-32.6-23.6-76.2-15.9-98.9 17.5-.9 1.3-2.4 2.6-3.9 3.2-32.6 13.9-53.3 51.4-44.2 88.1.9 3.7 2.2 5 6.1 5l385.9-.1c7.3 0 7.3 0 8.5-7.4.1-.4.1-.7.1-1.1-.1-2.7 1.2-4.5 3.3-6.2 12.6-10 16.4-23.4 13.1-38.5-3.2-14.7-13.1-23.7-27.5-27.8-1.5-.4-3.4-1.7-4-3-18.5-42.4-66.9-56.2-105.1-29.8-.5.3-1 .5-1.5.8-34.1-43.1-98.3-41.5-129.5.9zm1323.3 106.2c-15.1-9.2-21.9-11.8-33.1-12-19.6-.3-35.2 7.6-47.1 23.2-1.6 2.1-3.8 4-6.1 5-24.6 11.3-40.9 41.8-33.7 69.4.9 3.4 2.1 4.4 5.7 4.4h309.7c4.4 0 5.8-1.6 6.1-5.3.2-3.1 1.5-5.3 4-7.5 8.9-7.7 12.1-17.6 9.7-29-2.5-11.8-9.8-19.4-21.3-22.8-2.7-.8-4.1-2-5.2-4.5-10.1-22.9-33.8-35.9-58.5-32.4-9.6 1.4-18.1 5.2-25.9 10.8-26-33.5-78.8-33.7-104.3.7zm-382.6 175.7c-.9-.6-1.8-1.3-2.8-1.9-21.1-14.5-49.6-9.5-64.7 11.1-1.4 1.9-3.4 3.6-5.5 4.6-22 10.7-33.8 35.4-28.2 58.8.7 2.8 1.7 3.5 4.5 3.5h262.4c2.9 0 3.9-1 4.4-3.7.4-2.1.9-4.7 2.3-5.9 6.5-5.7 9.5-12.4 9.8-21.3.3-9.4-7.1-20.9-18.1-23.8-2.4-.6-3.7-1.8-4.7-4.1-8.9-19.8-29.7-31-50.9-26.7-7.2 1.4-13.9 5-21.1 7.7-20.3-25.7-63.8-28.9-87.4 1.7zM359.5 477.9l-3-1.9c-11.2-6.6-25.1-4.1-33.5 5.9-1.5 1.8-3.5 3.4-5.6 4.6-10.9 6.3-17.2 19.8-14.4 30.6.7 2.9 2.1 3.3 4.7 3.3h145.2c1.4-2.4 2.2-4.8 3.8-6.3 6.8-6.2 5.6-20.4-5.1-24-1.4-.5-2.8-1.9-3.6-3.2-5.2-9.5-13.1-14.9-24-14.3-5.3.3-10.5 2.5-16.2 4-12.3-14.4-34.3-15.1-48.3 1.3z" fill="#e39c28"/><path d="M.8 1034.3c1 1.4 2.4 2.6 3 4.2 2.3 5.8 2.5 11.6 1.1 18-1.2 5.5.2 11.6.6 17.4.2 3.2.6 6.4 1.4 9.6.5 2.2 1.4 4.5 2.6 6.4s3.1 2.3 5.4.9c4.3-2.7 8.9-5 13.3-7.5.6-.3 1.2-.8 1.8-1.2 4.5-4.1 4.4-5.6-1-8.7-5.5-3.1-7.5-10.9-3.8-15.9 9.6-13.3 18.8-14.6 32.9-13.1 5.3.6 8.8-.4 10.8-5.3 1.8-4.6 2.6-9.6 4.2-14.3.8-2.4 1.9-5.1 3.8-6.5 10-7.3 13-17.9 13.9-29.3.6-7.9-.4-16 .3-23.9 1-10.5 4.5-20.1 14.3-25.9 3.1-1.8 4.3-4.3 5.3-7.7 1.5-4.7 4-9.3 7-13.2 1.4-1.9 4.9-2.5 7.5-3.2 2.5-.6 5.2-.4 7.7-.9 3.8-.8 4.7-4.2 5.4-7.2l7.6-36.6 7.5-35.1c.7-3.3 1.3-6.7 2.8-9.6 2.2-4.4 6.6-3.9 10.5-3.3 4.1.6 7.3 2.6 8.2 7 .5 2.4.7 4.9.7 7.4l.9 32.1 1.6 38.8c.4 5.8 2.1 10.7 9.8 12 3.6.6 5.5 2.7 6.9 6.6 2.6 7 6.6 13.6 10.4 20.1 4.3 7.5 9.7 14.6 10.4 23.5.4 5.3.2 11-1.2 16.1-3.7 14.3-1.8 26.9 8.6 37.9 1.4 1.4 1.8 4 2.1 6 .5 2.9.3 5.9.9 8.8 1.4 6.6 6.1 10.3 13 10.5 3.7.1 7.9-.9 11.1.5 4.1 1.7 7.4 5.1 10.9 8.1 2.5 2.1 4.9 4.3 6.8 6.8 1 1.4 1.7 4 1 5.5-1 2.4-3 4.5-4.8 6.5-5.4 5.6-5.1 10.1 1.3 14.4 1.8 1.2 2.7 2.3 2.9 4.6.2 1.6 1.7 3.8 3.2 4.4 4.6 1.9 9.3 3.1 14.3.5 3.2-1.7 3.6-4.7 4.1-7.3 1.2-6 1.5-12.1 2.4-18.1l3.9-24.3c.4-2.3 1-4.5 1.3-6.8.6-5.7 3.2-8.2 8.7-8.2 6.1 0 10.4 3.2 10.6 8.2.7 16.9 4.6 33.5 3.9 50.6-.3 7 4.8 12.9 12.2 14.4 4.7 1 6.1 4 7.1 7.9.4 1.7.5 3.5 1 5.1 1.9 5.8 6.4 9.3 12.6 9.1l42.8-2.1 20.9-.8 42.6-.9c.3 0 .6-.1.9-.1l72-.5c14.8 0 29.7 1.1 44.5 1.2 16.2.1 32.3-1.5 47.6-7.5 5.8-2.2 11.2-5.3 16.6-8.4 3-1.7 3.8-4.7 2-7.7-2.6-4.4-5.1-9-8.5-12.8-2.2-2.5-2.4-4.4-1.3-7 3-7.2 8.2-12.1 15.9-13.3 8.6-1.3 13.4-6.6 16-14.1 3-8.6 6-17.2 7.8-26.1 1.3-6.1.7-12.6.9-18.9.2-9.6 3.6-17.4 11.7-23 4.3-2.9 5.4-7.7 6.5-12.4.6-2.4 1.1-4.7 1.9-7 1.9-5.2 6-7.6 11.4-8.1 3.5-.3 5.7-2 6.2-5.6l2.3-14.4 1.8-12.5 2.7-19.1 3.9-26c.5-3.1 3.3-4.5 6.3-4.8 3.8-.4 8.1-.3 9.6 3.8 1.7 4.7 2.5 9.8 3.1 14.8l3.7 37.4 1.6 17.4c.5 5.3 3.4 9.1 7.9 11.9 1.4.9 2.5 2.5 3.4 3.9 4.2 6.4 8.1 13 12.3 19.4 5.2 7.7 11.1 15.1 12.5 24.6.7 4.4.9 9 .3 13.4-1.2 7.7.7 14.4 5.7 20 3.1 3.5 4.3 7.4 4.3 11.9 0 5.6 2 9.9 7.3 12.2 6.3 2.8 12.8 2.9 18.1-1.5 1.7-1.4 2.2-5.8 1.3-8.2-1.6-4.5-.8-8.2 1.4-11.8 3.7-6.3 4.2-13.3 5-20.4.8-6.3 2.4-12.6 3.8-18.9.1-.6.6-1.1.6-1.7.5-4.5 3.1-7.6 6.2-10.7 4.7-4.8 8.7-10.4 12.7-15.8 3.4-4.6 7.2-8.7 12.8-10.6 3.1-1.1 4-3.6 4.3-6.9.5-5.3 1.5-10.6 2.2-15.9l3.7-30.1c.6-5.1 1.3-10.2 1.5-15.3.2-7.9 5.5-12 12.7-9.6 4.1 1.4 4.9 4.8 5.2 8.3l3.9 49.8c.8 8.5 4.4 16.2 8.9 23.4 7.3 11.7 13.9 23.8 23.4 34 3.6 3.9 3.5 9.1 4.6 13.9 1.8 7.9 4.3 15.6 5.9 23.5 1 5.1 1.4 10.4 1.3 15.6-.3 12.5 5.7 22.6 12.5 32.2.9 1.2 4.1 1.6 6 1.2 2.7-.6 4.7-2.6 4.9-5.8l3-40.5 1.4-27 .9-35.5c.1-4.6.3-9.2.8-13.7.5-4-1.1-7-3.4-9.8-7.1-8.6-11.3-18.4-13-29.3l-6.8-39c-1.2-7.4-2-14.9-3-22.4-.2-1.6-1.4-3.3-1.3-4.8.3-3.1.5-6.5 1.9-9.1 2.9-5.5 1.7-10.8.7-16.3-1.4-7.8-.3-15.2 4.1-21.8 4.4-6.5 9.8-12.4 13.6-19.2 3.2-5.8 5.1-12.4 7.1-18.8 1.9-5.8 2.5-6.8 7.3-7.3 1.4-5 1.9-9.7-1.3-14.5-.8-1.1-.2-4 .8-5.3 1.5-2 2-3.1 0-5-3.2-3-1.1-6.4-.5-9.5-3-.2-6-.1-8.9-.7-7.3-1.3-10.3-6.9-12.2-13.2-3.5-11.4 1.3-20.9 7.1-30.1 4.9-7.9 8.7-16.2 9.3-25.9.5-7.8 1.9-15.5 2.9-23.2v-1.1c.1-1.3.2-2.6.2-3.9 1.2 1 3.1 1.9 3.4 3.1 1.1 4.4 1.7 9 2.5 13.5 0 .3.1.6.1.9.1 1.5.3 2.9.4 4.4l-1 10.4h1.2l.7-12c1.4-7.7 1.9-15.7 5.1-23h1l3.1 25.9c.3.1.7.3 1 .4.4-1 .9-2 1.1-3.1.9-4.5 1.6-9 2.7-13.5.2-1 1.5-1.8 2.8-3.3.7 7 1.8 12.9 1.7 18.8-.3 16.8 3.5 32.4 11.6 47.1 1.3 2.4 1.9 5.1 2.9 7.6 2.1 5.1 1 9.9-.5 14.8-2.1 6.6-9 11.9-19.2 7.7l-3.6 6c-1.7 2.7-.5 5.1 1 7.3 1.7 2.4 1.5 4.1-.5 6.2-1.1 1.2-1.6 3.2-2 4.9-.3 1.7.1 3.5-.1 5.2-.4 4.5 1.7 7.5 5.1 10.2 1.3 1.1 1.9 3.1 2.9 4.6-1.7.9-3.3 1.9-5 2.6-1 .4-2.2.2-3.7.3 0 3-.1 5.8 0 8.7 0 .8.4 1.8 1 2.2 2.5 1.9 4.9 3.9 7.6 5.4 2.3 1.2 2.7 2.9 2.6 5.2-.1 4.6.3 9.2-.2 13.7-.3 2.5-1.6 5-2.9 7.1-2.3 3.7-3.3 8.7-8.5 10-.5.1-1.1 1-1.1 1.6-.4 2.4-.7 4.9-.8 7.4l-.8 46c0 1.8 1 4.1 2.3 5.5 7.6 8.2 15.1 16.7 23.4 24.2 2.8 2.5 8.1 3.5 12.1 3.2 2.1-.1 3.9-4.5 5.7-7 3.3-4.4 5.6-10.7 9.9-12.9 7.9-4 10.3-10.8 12.3-17.9 1.3-4.5.5-9.7.7-14.5.1-4.1.3-8.1.5-12.2.6-20.5 7.3-39.1 18.2-56.2 4-6.2 10.4-7.9 17.1-8.9l19.9-2.8c3.7-.5 6.1-2.4 7-6.1 2.4-9 6.2-17.2 10.9-25.3 5.4-9.3 10.7-18.9 14.5-28.9 2.1-5.5 3.5-11.9 1.1-18.5-1.7-4.8.2-9.9 2.3-14.5 1.9-4.3 4-8.6 5.8-13 .6-1.5 1.4-3.4 1.2-4.9-1.1-7 3.6-12.6 4.5-19.2.4-2.6 3.8-4.7 5.7-7.1 3.3-4.2 7.1-8.2 7.2-14.1 0-4.1.3-8.2.8-12.3.1-1 1.5-2.2 2.6-2.6 4-1.6 5.4-4.5 5.7-8.8.5-6.3 1.8-12.5 3.2-18.7.4-1.8 2.2-3.6 3.8-4.9 2.6-2.2 5.3-4.3 8.2-6 3.4-2.1 3-5.6 3.3-8.6 1.2-9.2 7.6-13.8 15.6-13.2 1.1.1 2.2-.2 3.5-.4 1.4 4.3 4.1 7.5 8.9 8.8 2.6.8 5.1 5 4.3 7.2-1.4 3.7.2 5.1 3.5 6.1 6 1.8 11.1 4.8 12.5 11.4.7 3.2.8 6.8.2 10-1 5.7.6 10.2 4.6 14.2 1.7 1.7 3.4 3.3 5 5.1 3.8 4.2 3.8 9.3 3.5 14.4-.1 2.1.4 3.4 2.3 4.6 4.4 2.8 5.4 7.6 6.6 12.1 1.7 6.2 2.9 12.3 1.9 19-.8 5.3.9 10.8 1.1 16.3.1 1.8-.5 3.7-1.2 5.4-2.5 5.9-4.2 11.8-2.8 18.4.7 3.2-.2 6.7-.2 10 0 1.6.1 3.2.4 4.7.8 5.1 1.8 10.2 2.3 15.4 1.1 9.5 2.7 18.6 8.9 26.7 3 3.9 4 9.5 5.2 14.4 1.1 4.4 2.9 7.9 6.6 10.8s6.5 6.8 9.8 10.2c.8.9 2 1.5 3.2 1.9 3.6 1.3 7.7 1.6 10.6 3.7 4.6 3.3 9.9 3.8 14.9 5.1 10.2 2.8 17.6 9 22.9 17.9 7.6 12.9 14.2 26.2 16.5 41.1.7 4.5 1.3 9.2 1 13.7-.4 8.4 3.5 14.7 8.4 20.9 1.4 1.7 4.2 3.1 1.7 6.2-.5.6 1.3 3.1 2.1 4.7.4.1.8.2 1.3.3 2.3-4 5.1-7.8 6.7-12 2.1-5.8 3.4-11.9 4.7-17.9.5-2.1.2-3.9-2.5-5.3-4.5-2.4-5.6-7.3-2.4-9.9 1.6-1.3 4-1.6 6.7-2.6-.8-.8-1.5-1.8-2.4-2.4-3.8-2.5-7.8-4.6-11.3-7.4-4.9-3.8-9.9-7.7-13.9-12.3-6.6-7.6-5.9-16.7-3.2-25.7 2.3-7.5 7.3-12.6 14.8-14.9 8.2-2.6 13.1 1.8 16.3 8.4 8.1-.7 14.8 3.6 21.7 6.8 2.2-3.3 3.6-3.3 6.1-.7.5.5 1.9.8 2.6.5 4-1.3 7.7-1.1 11.4 1.1 1.4.8 3.7.2 5.6.2l-.1-.1c-.9 2.1-.6 3.5 1 5.5 1.8 2.3 2.9 5.6 3.3 8.5 1.7 12.6-2.4 25.1-15 30.2-2 .8-4.3.8-6.3 1.7-1 .4-2.1 1.7-2.4 2.8-.5 2.2-.5 4.5-.4 6.7.1.9 1.2 2.2 2 2.4 3.2.6 5.2 2.4 4.8 5.5-.4 2.8-2.4 4.4-5.6 4.2-.8 0-2.3 1.4-2.4 2.3l-5.5 46.6c-1.2 8.4-3.6 16.7-5.3 25-.3 1.2-.2 2.7.2 3.9 1.7 6.3 3.7 12.5 5.2 18.8.6 2.4 1.3 3.3 3.8 3.3 4.7 0 8.8 3 9.7 6.8 1 4-.9 7.3-5.1 10.3-1.4 1-2.9 3-2.9 4.5l-.1 34.9c0 .7.2 1.4.4 2.4l9.1-1.7c5.2-1 10.9 2.5 11.1 7.6.1 2.6-1.3 5.3-2.2 8.3 4.3 3.6 4.6 6.5-.1 10.7-2.9 2.6-6.2 4.8-9.8 7.4 1.7.5 3.9 1.1 5.9 1.9 5.6 1.9 11.1 2.3 17.1 1.1 4.1-.9 8.8.3 13.2 1.1 3.4.6 6.6 2.1 9.8 3.3 2.9 1.1 5.1.2 6.8-2.2s-.2-4.2-1.3-6c-1-1.6-2.4-2.8-3.4-4.4-3-5-1.7-10 3.3-13.3 2-1.3 4.2-2.5 6.2-3.8 4.3-2.7 7.7-6 8-11.6.6-10.6 5-20.2 8.2-30.1 2.3-7.2 3.5-14.6 4-22.2.7-9.6 3.7-17.8 15.1-22.1 6.8-2.6 10.5-7.1 11.1-14.9.3-3.7 1-7.4 4.7-10.2 4.5-3.6 5.3-9.4 5.7-14.9l2.3-29.5c.3-3.6.4-7.1.7-10.7l2.5-26.4c.4-3.9 3.2-5.9 7.2-6.2 8.7-.5 11.6 2 12.8 10.7l6.6 45.6 3.1 22.1c.5 3.5 2.8 5.7 5.9 7.1 4.4 1.9 6.6 5.3 6.9 10.1.5 8.3 4.2 14.4 12.7 16.8 6.5 1.9 10.4 6.7 11.8 12.9 4.1 17.8 7.9 35.8 11.4 53.7 1.4 7.2 4.5 12.8 11.1 16.2 3.2 1.7 6.5 3.2 9.7 4.9 4.9 2.7 6.1 5.8 4.7 11.1-.2.8-.5 1.7-.7 2.5-1.8 6.2 1 10.7 7.4 11.9 7.4 1.4 14.7 1 21.7-1.4 7.7-2.6 15.4-5.6 22.8-9.1 7.7-3.7 10.3-10.7 10.7-18.8.1-1.4 0-2.7.1-4.1.2-4.5 2.7-7 7.2-7l35.6.1c10.8 0 20.9-2.6 30.4-7.8 1.6-.9 3.9-1.2 5.6-.8 7.3 1.7 11.1-.1 14.1-7.4 1.1-2.7 2.2-5.4 5.7-5.5 1.5 0 3.1 0 4.4.6 10.3 4.8 20.6 3.1 30.2-1.1 15.9-7 32.7-10.9 49.1-16 7.6-2.4 15.3-4.2 22.9-6.3v186H.1l.7-166.1zm1058.9 39.2c.1-4.3 1.1-8.9.3-13.1-2.3-12.2-5.4-24.3-8.1-36.5-.9-4.2-1.5-8.4-2.3-12.8-9.6 6.3-11.1 6.9-20.6 8.7-7.4 1.3-12.4-.5-15.6-7.2-3.9-8.1-9.8-14-17-19-3.7-2.5-6.9-5.8-10.3-8.7-.9-.8-1.8-1.5-3.1-2.7-.2 1.1-.3 1.5-.3 2l-1.5 37-1.6 42.1c-.3 7.7-.9 15.4-1.4 23.1-.4 5.9-1.3 11.8 1.3 17.6 1.7 3.8 2.6 7.9 6.1 10.8 4.6 3.9 8.9 3.2 11.3-2.4 2.1-5 4-10 6-15 .4-1 .8-2.1 1.4-3 6.5-8.7 14.9-14.2 25.7-16l29.7-4.9zm24.1-1.5l10-2.2c-.2-3-.3-5.7-.6-8.4-.4-3.6.9-6.3 4.3-7.3 2.3-.7 2.7-1.8 3-3.9.7-6 4.7-8.9 10.6-7.4 3.4.9 6.8 2.4 9.9 4.2 5.3 3.1 8.1 2.4 9.8-3.4 1.7-6 2.9-12.1 4-18.3.9-5 1.8-9.9 6.7-12.7l-15.3-39.1c-7.1 5.8-14.6 8.3-23.4 5.2-1.6-.5-3.6-.4-5.2 0-1.3.4-3.1 1.8-3.2 2.8-.3 3.7-.6 7.6.2 11.2 1.9 9 1.8 18-.1 26.8-2.2 10.6-5.3 21-8.2 31.4-1.9 6.9-3.2 13.5-2.5 21.1zm270.5-3.5c3.2-1.2 6-1 8 2.3.2.4 1.1.7 1.6.6 3.5-.8 6.9-1.8 10.8-2.8-3.3-5-2-8.9 1.5-11.7l-12.7-22.6-8.8 10.7c-.5.6-1.1 1.7-.9 2.3 1.9 6.8 1.2 13.5.1 20.3-.1.2.2.5.4.9zM975.4 703.1c-1.6 2.1-3.6 3.7-4.2 5.7-.5 1.8.1 4.4 1.1 5.9.6.8 4 .9 4.7.1 1.1-1.3 1.5-3.7 1.2-5.6s-1.7-3.7-2.8-6.1zm-.6 157.5v-10.8c-5.7 1.6-7.7 5.1-6.1 10.4 1.9.2 3.8.3 6.1.4zm20.8-153.5c-3 5.8-1.5 9.9 4 11.3 1-4.5-.3-8.2-4-11.3zm-24.4 162.4l2.4 7c.2-.1.4-.1.6-.2l.6-7.2c-1.2.1-2.1.2-3.6.4z" fill="#22201d"/><path d="M252.1 47.6c31.2-42.3 95.4-44 129.4-1 .5-.2 1-.4 1.5-.8 38.2-26.4 86.6-12.6 105.1 29.8.6 1.4 2.5 2.6 4 3 14.5 4.1 24.3 13.1 27.5 27.8 3.3 15.1-.5 28.5-13.1 38.5-2.2 1.7-3.4 3.5-3.3 6.2 0 .4-.1.7-.1 1.1-1.2 7.4-1.2 7.4-8.5 7.4l-385.9.1c-3.9 0-5.2-1.3-6.1-5-9.1-36.7 11.6-74.3 44.2-88.1 1.5-.6 3-1.9 3.9-3.2 22.7-33.3 66.3-41.1 98.9-17.5.9.6 1.7 1.1 2.5 1.7z" fill="#efefee"/><path d="M1575.4 153.8c25.5-34.4 78.4-34.2 104.2-.7 7.8-5.6 16.3-9.4 25.9-10.8 24.7-3.5 48.4 9.5 58.5 32.4 1.1 2.5 2.5 3.7 5.2 4.5 11.5 3.4 18.9 11.1 21.3 22.8 2.4 11.4-.9 21.4-9.7 29-2.5 2.2-3.8 4.3-4 7.5-.3 3.7-1.7 5.4-6.1 5.3-103.2-.2-206.4-.2-309.7 0-3.6 0-4.8-1-5.7-4.4-7.2-27.6 9.1-58.2 33.7-69.4 2.3-1.1 4.5-3 6.1-5 11.9-15.6 27.4-23.6 47.1-23.2 11.3.2 18 2.8 33.2 12zm-382.6 175.7c23.5-30.7 67-27.4 87.3-1.6 7.2-2.7 14-6.2 21.1-7.7 21.2-4.3 42.1 6.9 50.9 26.7 1 2.3 2.3 3.4 4.7 4.1 11 2.9 18.4 14.4 18.1 23.8-.3 8.9-3.3 15.6-9.8 21.3-1.4 1.2-1.9 3.8-2.3 5.9-.5 2.6-1.5 3.7-4.4 3.7-87.5-.1-174.9-.1-262.4 0-2.7 0-3.8-.8-4.5-3.5-5.6-23.5 6.2-48.1 28.2-58.8 2.1-1 4.2-2.7 5.5-4.6 15-20.6 43.6-25.6 64.7-11.1 1.1.6 2 1.2 2.9 1.8z" fill="#efeeee"/><path d="M359.5 477.9c14-16.4 36-15.7 48.2-1.4 5.7-1.5 10.9-3.7 16.2-4 10.9-.6 18.7 4.8 24 14.3.7 1.3 2.2 2.7 3.6 3.2 10.7 3.6 11.9 17.8 5.1 24-1.6 1.5-2.4 3.9-3.8 6.3H307.6c-2.5 0-3.9-.3-4.7-3.3-2.8-10.9 3.5-24.4 14.4-30.6 2.1-1.2 4.1-2.8 5.6-4.6 8.4-10 22.3-12.5 33.5-5.9l3.1 2z" fill="#efeeed"/><path d="M981.8 662.2l-.7 12h-1.2l1-10.4.9-1.6zm-1.3-2.8c0-.3-.1-.6-.1-.9l.3.6c-.1 0-.2.2-.2.3z" fill="#916828"/><path d="M1442.3 836.3c0-.1.1-.1.1-.2-.1 0-.1 0-.1.2-.1-.1 0 0 0 0z" fill="#22201d"/><path d="M460.6 1127.1c-.3 0-.6.1-.9.1.3 0 .6-.1.9-.1z" fill="#795925"/><path d="M1059.7 1073.5l-29.9 4.9c-10.8 1.8-19.2 7.3-25.7 16-.7.9-1 2-1.4 3l-6 15c-2.3 5.6-6.6 6.3-11.3 2.4-3.5-2.9-4.4-7-6.1-10.8-2.6-5.8-1.7-11.7-1.3-17.6l1.4-23.1 1.6-42.1 1.5-37c0-.5.1-.9.3-2a153.12 153.12 0 0 1 3.1 2.7c3.4 2.9 6.6 6.1 10.3 8.7 7.2 5 13.1 10.9 17 19 3.2 6.7 8.3 8.5 15.6 7.2 9.5-1.7 11-2.3 20.6-8.7.8 4.4 1.4 8.7 2.3 12.8l8.1 36.5c.9 4.2 0 8.8-.1 13.1z" fill="#e29c28"/><path d="M1083.8 1072c-.7-7.6.6-14.2 2.5-20.9 3-10.4 6-20.8 8.2-31.4 1.8-8.8 2-17.8.1-26.8-.8-3.6-.5-7.5-.2-11.2.1-1.1 1.9-2.4 3.2-2.8 1.6-.5 3.6-.6 5.2 0 8.8 3 16.3.6 23.4-5.2l15.3 39.1c-4.9 2.8-5.8 7.7-6.7 12.7-1.1 6.1-2.3 12.3-4 18.3-1.6 5.9-4.5 6.5-9.8 3.4-3.1-1.8-6.5-3.3-9.9-4.2-5.9-1.5-9.8 1.4-10.6 7.4-.3 2.1-.7 3.3-3 3.9-3.5 1-4.8 3.7-4.3 7.3.3 2.7.4 5.4.6 8.4-3.4.6-6.5 1.3-10 2z" fill="#e29b28"/><path d="M1354.3 1068.5c-.2-.4-.4-.6-.4-.8 1.1-6.8 1.8-13.5-.1-20.3-.2-.6.4-1.7.9-2.3l8.8-10.7 12.7 22.6c-3.5 2.8-4.9 6.8-1.5 11.7l-10.8 2.8c-.5.1-1.3-.2-1.6-.6-2-3.4-4.8-3.6-8-2.4z" fill="#df9a29"/><path d="M975.4 703.1c1.1 2.3 2.5 4.1 2.8 6.1.3 1.8-.1 4.2-1.2 5.6-.7.8-4.2.8-4.7-.1-1.1-1.6-1.6-4.1-1.1-5.9.5-2 2.5-3.6 4.2-5.7z" fill="#da9629"/><path d="M974.8 860.6l-6.1-.4c-1.6-5.3.4-8.8 6.1-10.4v10.8z" fill="#dd9829"/><path d="m995.6 707.1c3.7 3.2 5 6.8 4 11.3-5.4-1.4-6.9-5.5-4-11.3z" fill="#d79529"/><path d="M971.2 869.5l3.5-.4-.6 7.2c-.2.1-.4.1-.6.2l-2.3-7z" fill="#c98b2a"/></svg>